<svg width="36" height="39" viewBox="0 0 36 39" fill="none" xmlns="http://www.w3.org/2000/svg">
<path id="Vector" d="M32.3243 15.0702L32.325 15.0682C33.0751 12.9667 33.0105 10.9484 31.6878 9.0034L31.6876 9.00319C31.3289 8.47507 31.1706 7.85688 31.1006 7.31667C30.9669 6.37786 30.5667 5.60867 29.6612 4.91268L29.6608 4.91241C27.9032 3.55885 26.0359 2.44728 23.7154 1.80922C20.5157 0.933428 17.6103 1.2376 15.2037 2.97212L32.3243 15.0702ZM32.3243 15.0702C32.0333 15.897 31.5476 16.6988 31.0367 17.5421L31.0004 17.6021C31.0002 17.6024 31 17.6027 30.9998 17.603C30.5469 18.3454 30.3712 19.0796 30.5278 19.8161C30.681 20.5365 31.1359 21.1787 31.775 21.7824C33.0391 22.9832 34.0833 24.2379 34.5466 25.7129L32.3243 15.0702ZM10.8736 6.96001L10.8735 6.9601C10.4191 7.37557 9.88121 7.84356 9.23428 8.16473C6.70508 9.42173 4.89609 10.9245 4.44525 13.135L4.44505 13.136C4.12966 14.6666 3.43757 16.003 2.1183 17.221C0.702948 18.5296 0.64381 20.4141 1.78178 21.5545L1.78206 21.5548C3.72716 23.5073 4.07198 25.6853 3.68314 27.9758L3.68304 27.9764C3.58671 28.5397 3.52579 29.0982 3.457 29.729C3.42626 30.0109 3.39394 30.3072 3.35619 30.6248C3.39287 30.8377 3.42553 31.0768 3.45786 31.3136C3.482 31.4904 3.50595 31.6658 3.53126 31.828C3.59915 32.2629 3.68691 32.6883 3.8364 33.0896L3.83693 33.0911C4.12498 33.8715 4.9238 34.3159 5.88553 34.1238C7.38648 33.82 8.46131 34.3488 9.45004 34.8353C9.4881 34.854 9.52603 34.8727 9.56385 34.8913L9.56468 34.8917C10.3789 35.2929 11.2121 35.663 12.0782 35.9556L12.0804 35.9563C12.6414 36.1488 13.1406 36.3864 13.5099 36.9504L13.5104 36.9512C13.9136 37.5694 14.332 37.9369 14.8345 38.1338C15.3466 38.3346 16.0075 38.3826 16.9388 38.2419C17.3024 38.1865 17.6633 38.1174 18.0342 38.0464L18.0354 38.0462C18.4037 37.9757 18.782 37.9033 19.1645 37.8455C19.9317 37.7294 20.7384 37.668 21.5953 37.7934L21.5963 37.7936C21.8159 37.8262 22.1624 37.7556 22.4245 37.6345C22.4246 37.6345 22.4247 37.6344 22.4249 37.6344L22.6346 38.0882C23.0913 37.8762 23.5669 37.6777 24.0429 37.479C25.2384 36.98 26.4371 36.4796 27.3488 35.7607L10.8736 6.96001ZM10.8736 6.96001C11.3806 6.49617 11.8699 6.00799 12.35 5.52908M10.8736 6.96001L12.35 5.52908M21.126 20.3014C21.3434 19.7851 21.4526 19.2664 21.2356 18.7679C21.0297 18.2948 20.5805 17.9665 20.0415 17.6758C19.8194 17.5548 19.5886 17.4503 19.3761 17.3544L19.3611 17.3476C19.1485 17.2517 18.9541 17.1639 18.7708 17.0663L18.7707 17.0662C17.9396 16.6237 17.3623 16.1344 17.0363 15.6015C16.7208 15.0858 16.617 14.4922 16.7999 13.7674L16.8005 13.7649C16.9479 13.168 17.1276 12.5799 17.312 11.9768C17.3801 11.7538 17.4489 11.5288 17.5169 11.3005L17.8066 10.3278L16.8588 10.6909C16.1254 10.9719 15.3933 11.3344 14.8783 11.8361C14.34 12.3606 14.0284 13.0534 14.2122 13.9118L14.2123 13.9122C14.3719 14.6549 14.3051 15.2716 14.0471 15.8175C13.7849 16.3724 13.3039 16.8991 12.5584 17.4161C11.6856 18.0208 11.082 18.7378 10.7669 19.5602C10.4512 20.3839 10.4422 21.2686 10.6827 22.1775C10.7577 22.4645 10.8257 22.7542 10.8947 23.0507L10.9059 23.0986C10.971 23.3781 11.0376 23.6639 11.1106 23.9492L11.595 23.8251L11.1106 23.9492C11.1937 24.2735 11.3412 24.6312 11.6601 24.8938C11.9851 25.1615 12.4113 25.2684 12.9222 25.2508L12.924 25.2508C13.8951 25.214 14.5108 25.6562 15.06 26.3045C15.5351 26.8738 16.0041 27.4457 16.5 28.0504C16.7458 28.3501 16.9981 28.6578 17.2612 28.9773L17.425 29.1764L17.6822 29.1583C18.6339 29.0916 19.7029 29.0111 20.7205 28.9341L21.1275 28.9033L21.1788 28.4984C21.1871 28.433 21.1953 28.3696 21.2034 28.3079C21.2694 27.8008 21.3202 27.4113 21.2402 27.023C21.1503 26.5861 20.9028 26.171 20.5089 25.5337L20.5083 25.5326C20.0966 24.8703 19.9097 24.2325 19.9018 23.6076C19.8938 22.9802 20.066 22.334 20.4207 21.6573L20.4207 21.6573C20.4834 21.5376 20.5552 21.4085 20.6303 21.2733C20.8008 20.9666 20.9885 20.629 21.126 20.3014ZM21.126 20.3014L20.6652 20.1074M21.126 20.3014C21.1261 20.3012 21.1262 20.3011 21.1262 20.3009L20.6652 20.1074M20.6652 20.1074C21.0646 19.1585 20.8516 18.6805 19.803 18.1153C19.5929 18.0007 19.3709 17.9006 19.149 17.8004C18.9413 17.7068 18.7337 17.6131 18.5357 17.5076L19.9778 21.4252C20.0529 21.2819 20.1321 21.1397 20.2112 20.9976C20.3749 20.7034 20.5384 20.4096 20.6652 20.1074ZM12.35 5.52908C12.5704 5.30915 12.7889 5.09118 13.0062 4.87843M12.35 5.52908L13.0062 4.87843M13.0062 4.87843C13.7057 4.19369 14.4123 3.54308 15.2035 2.97226L13.0062 4.87843ZM20.6827 28.4355C19.665 28.5125 18.5974 28.5929 17.6472 28.6596C17.3856 28.3417 17.1339 28.0348 16.8884 27.7355L20.6827 28.4355Z" fill="#11B0C8" stroke="#87F54E"/>
</svg>
