<svg width="41" height="70" viewBox="0 0 41 70" fill="none" xmlns="http://www.w3.org/2000/svg">
<path id="Vector" d="M1.95477 30.1295L1.95437 30.1296C1.38298 30.2471 1.06408 30.4448 0.906413 30.6436C0.764493 30.8225 0.699436 31.0702 0.794766 31.4457L0.794826 31.446C0.914083 31.9167 1.14436 32.2487 1.46574 32.4606C1.79248 32.6759 2.26551 32.8011 2.92642 32.7553C4.20165 32.6656 5.26678 32.9866 6.28738 33.2942C6.38467 33.3235 6.48154 33.3527 6.57816 33.3815L6.57819 33.3815C7.04195 33.5193 7.4712 33.7055 7.8758 33.8951C8.02267 33.9639 8.16312 34.0316 8.3008 34.0979C8.55405 34.2199 8.79797 34.3374 9.05543 34.4494C9.82444 34.784 10.5974 35.0137 11.5506 34.9231L12.372 34.8451L12.061 35.6094C12.0187 35.7132 11.9912 35.7954 11.9617 35.8832C11.9482 35.9236 11.9343 35.9651 11.9183 36.0105C11.873 36.1397 11.8105 36.3009 11.6937 36.4537C10.9083 37.5013 10.6112 38.6266 10.5613 39.8777L10.5613 39.8797C10.5276 40.6452 10.0658 41.3908 9.65239 41.9375C9.18501 42.5642 9.07824 43.115 9.28679 43.6946L9.28776 43.6973C9.50353 44.3079 9.73839 44.8815 10.0964 45.3752L10.0973 45.3765C10.3696 45.7545 10.5485 46.1471 10.569 46.5831C10.5896 47.0179 10.4494 47.4274 10.2149 47.8337C9.80209 48.5594 9.55905 49.2678 9.53065 49.9565C9.50261 50.6365 9.68217 51.3288 10.1672 52.0369L10.1684 52.0386C10.3676 52.332 10.576 52.7622 10.5506 53.2072L10.5504 53.2118C10.5207 53.6604 10.5099 54.1161 10.5014 54.5826C10.5002 54.647 10.4991 54.7117 10.498 54.7766C10.4909 55.1782 10.4837 55.588 10.4654 55.9955C10.4228 56.9426 10.3189 57.9151 9.99914 58.8565L9.99875 58.8576C9.19613 61.2019 9.12125 63.544 9.19276 65.9782C9.22414 67.0211 9.49484 68.0053 10.2754 68.8138C10.6271 69.1765 10.9739 69.297 11.2606 69.2801C11.5469 69.2633 11.8672 69.1041 12.1565 68.7186C12.257 68.5829 12.3181 68.4276 12.4075 68.2003C12.4188 68.1716 12.4306 68.1416 12.4429 68.1105C12.9238 66.8844 13.3998 65.6549 13.8639 64.4191C13.9346 64.2294 14.0059 64.0506 14.0744 63.879C14.2656 63.3995 14.4343 62.9766 14.5035 62.5303C14.9452 59.6319 15.3641 56.7323 15.7023 53.8335C15.892 52.1912 16.2358 50.5156 17.5848 49.0423C17.84 48.7611 17.9999 48.4756 18.022 48.2746C18.0351 48.1358 18.049 47.9994 18.0626 47.8653C18.1769 46.7421 18.2751 45.7777 17.8097 44.8355L18.258 44.6141M1.95477 30.1295L1.85369 29.6398C2.27665 29.5525 2.72162 29.4985 3.15486 29.4801C4.1168 29.4353 4.99056 29.2504 5.74249 28.7541M1.95477 30.1295C2.35063 30.0478 2.76885 29.997 3.17605 29.9797L3.17812 29.9796C4.18605 29.9326 5.16113 29.7369 6.01793 29.1713M1.95477 30.1295L6.01793 29.1713M18.258 44.6141L17.8104 44.8368C17.6398 44.4939 17.5526 44.1325 17.5821 43.7589C17.6116 43.385 17.755 43.036 17.9874 42.7134C19.0139 41.2842 19.1273 39.7481 18.8628 38.0721C18.8628 38.0718 18.8627 38.0715 18.8627 38.0712L19.3565 37.9932M18.258 44.6141C17.9819 44.0592 18.0157 43.5295 18.3931 43.0057C19.5254 41.4294 19.6326 39.7418 19.3565 37.9932M18.258 44.6141C18.7912 45.6936 18.6755 46.8085 18.5608 47.9145C18.5466 48.0514 18.5324 48.1883 18.5194 48.3249L19.3565 37.9932M19.3565 37.9932C19.269 37.4469 19.249 36.8926 19.2291 36.3387C19.2199 36.0841 19.2107 35.8296 19.195 35.576L19.5974 35.3474C19.7788 35.4138 19.9713 35.4703 20.1637 35.5268C20.5773 35.6483 20.9905 35.7697 21.2922 35.9884C23.1823 37.3498 25.4851 37.4888 27.7893 37.2108M27.7893 37.2108C29.0641 37.0534 30.0201 37.2085 30.9982 37.7841C32.2598 38.532 33.7107 38.918 35.2983 38.9663M27.7893 37.2108L27.7294 36.7144C27.7292 36.7144 27.729 36.7145 27.7287 36.7145C27.7285 36.7145 27.7283 36.7146 27.728 36.7146L27.7893 37.2108ZM35.2983 38.9663C37.5306 39.0283 38.3824 38.4286 38.4852 36.7398C38.6349 36.6551 38.7874 36.574 38.9394 36.493C39.2453 36.3303 39.5494 36.1684 39.826 35.9804M35.2983 38.9663L35.3135 38.4665C35.3132 38.4665 35.313 38.4665 35.3127 38.4665C35.3125 38.4665 35.3124 38.4665 35.3122 38.4665L35.2983 38.9663ZM39.826 35.9804C40.9598 35.2061 41.0656 34.2502 40.0038 33.3989C39.4839 32.9796 38.8039 32.6188 38.1063 32.4143C37.1899 32.1443 36.1957 31.9973 35.219 31.8973C34.5185 31.8261 33.9942 31.64 33.5301 31.2161C32.6269 30.3797 31.4198 29.9994 30.029 29.981M39.826 35.9804L39.545 35.5669C39.5449 35.5669 39.5449 35.5669 39.5449 35.5669C39.5446 35.5671 39.5443 35.5673 39.544 35.5675L39.826 35.9804ZM30.029 29.981C29.3123 29.9723 28.5935 29.9745 27.8678 29.9767C27.5392 29.9777 27.2092 29.9787 26.8773 29.9787C25.4734 28.4668 25.043 28.3589 22.4304 28.6311C22.2806 28.6462 22.1303 28.6631 21.9792 28.6802C21.1397 28.775 20.2752 28.8727 19.3317 28.6554C19.3252 28.6717 19.3187 28.6879 19.3122 28.7041L18.8484 28.5174L19.0102 28.0443C19.0151 28.046 19.0199 28.0476 19.0248 28.0493C19.0435 27.9972 19.0621 27.9451 19.0806 27.8932C19.2433 27.4373 19.4035 26.9883 19.6517 26.5747M30.029 29.981L30.0224 30.481C30.0226 30.481 30.0227 30.481 30.0229 30.481L30.029 29.981ZM19.6517 26.5747C20.7356 24.7652 21.4684 22.8684 21.9222 20.92C22.4171 18.798 22.9415 16.6968 24.2236 14.7575M19.6517 26.5747L19.223 26.3174C19.2229 26.3175 19.2229 26.3176 19.2228 26.3177L19.6517 26.5747ZM24.2236 14.7575L24.3219 14.5105M24.2236 14.7575L23.8065 14.4817C23.7969 14.4962 23.7873 14.5107 23.7779 14.5252L23.759 14.5726L24.2236 14.7575ZM24.3219 14.5105C24.6068 13.0216 24.6626 11.5889 23.0295 10.4654M24.3219 14.5105L23.8573 14.3256L23.8396 14.3701C23.8367 14.3856 23.8338 14.401 23.8308 14.4165L24.3219 14.5105ZM23.0295 10.4654C21.7268 9.5727 21.6975 9.33947 22.564 8.17108C22.8584 7.77363 23.1616 7.38 23.4646 6.9865C24.0717 6.1982 24.6785 5.41044 25.2133 4.59353C25.6803 3.88124 26.0843 3.08623 26.19 2.30156M23.0295 10.4654L22.7461 10.8773C22.7462 10.8773 22.7463 10.8774 22.7463 10.8774C22.7465 10.8776 22.7467 10.8777 22.7469 10.8778L23.0295 10.4654ZM26.19 2.30156C26.3941 0.725326 25.0121 -0.177682 22.9869 0.0750672M26.19 2.30156L25.6945 2.23479C25.6944 2.23531 25.6944 2.23582 25.6943 2.23634M26.19 2.30156L25.6942 2.23734C25.6942 2.23701 25.6942 2.23668 25.6943 2.23634M22.9869 0.0750672C21.1761 0.301393 20.0894 1.21244 19.3698 2.4647C18.9733 3.15485 18.5507 3.83617 18.1268 4.51963C17.9996 4.72473 17.8723 4.93001 17.7455 5.13579M22.9869 0.0750672L23.0489 0.571207M22.9869 0.0750672L23.0489 0.571207M17.7455 5.13579C17.6496 5.29141 17.5534 5.44689 17.4572 5.60235C16.1416 7.72855 14.8284 9.85076 14.4411 12.2553C14.3133 13.0513 13.9597 13.8278 13.6096 14.5963C13.5535 14.7196 13.4975 14.8426 13.4425 14.9654C12.8271 16.3579 12.3233 17.7664 12.3586 19.2507C12.3777 20.264 12.0943 21.2049 11.52 22.1159C10.7446 23.351 10.5361 24.6365 10.8856 26.0129C11.2762 27.5558 10.6638 28.1038 8.69881 28.1107C7.62819 28.1141 6.59869 28.19 5.74249 28.7541M17.7455 5.13579L18.1712 5.39806C18.1712 5.39805 18.1712 5.39804 18.1712 5.39804M17.7455 5.13579L18.1712 5.39804M5.74249 28.7541L6.01793 29.1713M5.74249 28.7541L6.01757 29.1716C6.01769 29.1715 6.01781 29.1714 6.01793 29.1713M6.01793 29.1713C6.73931 28.6962 7.63257 28.6141 8.70042 28.6107H8.70056C9.2107 28.6089 9.65909 28.5723 10.038 28.4839C10.4164 28.3956 10.7576 28.2482 11.019 28.0012C11.5778 27.473 11.5758 26.7017 11.3703 25.8901L11.3702 25.8898C11.0553 24.6498 11.2387 23.5044 11.9434 22.382C12.5637 21.3976 12.8796 20.362 12.8585 19.2413L12.8585 19.2388C12.826 17.8713 13.2896 16.5486 13.8994 15.1686C13.9515 15.0521 14.0057 14.9333 14.0608 14.8125C14.4092 14.0491 14.7952 13.2033 14.9348 12.3348C15.3055 10.0332 16.5668 7.99333 17.8953 5.8449C17.987 5.6965 18.0791 5.54759 18.1712 5.39804M6.01793 29.1713L23.0488 0.571218C21.4119 0.775838 20.4543 1.58106 19.8033 2.71382C19.4022 3.41202 18.9736 4.10311 18.5488 4.78794C18.4223 4.99185 18.2962 5.19521 18.1712 5.39804M23.0489 0.571207C23.9863 0.454239 24.7026 0.615082 25.1426 0.91542C25.5546 1.19661 25.7727 1.62874 25.6943 2.23634M23.0489 0.571207L22.1624 7.87324M25.6943 2.23634C25.6032 2.9096 25.248 3.62881 24.7952 4.31938L24.795 4.31964C24.2702 5.12121 23.6842 5.88192 23.0844 6.66041C22.7786 7.05747 22.4691 7.45916 22.1624 7.87324M22.1624 7.87324C22.1623 7.87332 22.1623 7.8734 22.1622 7.87349L22.5633 8.17052L22.1624 7.87324Z" fill="#11B0C8" stroke="#87F54E"/>
</svg>
