<svg width="98" height="110" viewBox="0 0 98 110" fill="none" xmlns="http://www.w3.org/2000/svg">
<g id="Vector">
<mask id="path-1-inside-1_49_88" fill="white">
<path d="M96.7208 101.869C96.3991 100.273 95.5635 98.8318 94.1037 97.6324C92.3487 96.1803 91.2766 94.5006 91.1121 92.4591C90.9227 90.1131 89.203 88.5668 86.4816 87.7442C85.5872 87.4719 84.9513 87.1031 84.5254 86.4667C84.0158 85.705 83.4342 84.964 83.0098 84.1747C82.4708 83.1752 81.5295 82.502 80.265 82.2814C78.789 82.0217 78.137 81.3198 77.8124 80.2892C77.6905 79.9113 77.5275 79.5413 77.4541 79.1576C76.9577 76.6864 75.2306 74.8747 72.5225 73.6258C71.6575 73.2249 71.2271 72.6666 70.8189 71.9738C69.9906 70.5722 69.2342 69.0775 68.0109 67.9057C66.2691 66.2364 64.075 64.9508 60.9792 65.9078L60.5885 65.8228C60.214 65.2093 59.8748 64.5246 59.4019 63.9019C58.2446 62.3923 57.4883 62.2579 55.5482 63.1333L55.2824 63.146C55.1135 62.8737 54.9344 62.5727 54.742 62.2717C54.0782 61.2331 53.4834 60.1601 52.7271 59.1629C52.05 58.2667 51.2305 57.4545 49.6297 57.5131C49.2229 57.528 48.7985 57.2305 48.0774 56.9662C48.8837 56.5285 49.3008 56.2379 49.781 56.0529C51.2775 55.4681 52.4084 54.6203 52.9723 53.3864C53.2293 52.8303 53.7066 52.5224 54.3469 52.3673C55.1326 52.1801 55.9404 52.0123 56.7569 51.956C58.9525 51.801 60.4094 50.7785 61.477 49.4309C62.5785 48.0419 63.3906 46.5196 63.7328 44.8779C63.9076 44.0301 64.097 43.258 65.2146 42.7422C65.7433 42.4986 66.0723 41.8518 66.2662 41.3383C66.5041 40.6846 66.6054 39.978 66.5951 39.2991C66.579 38.118 66.9564 37.1312 68.0417 36.2523C70.0273 34.6542 70.5897 32.6793 70.1257 30.5114C69.7512 28.7606 69.5133 27.0453 70.346 25.2933C71.3358 23.2196 70.7043 21.3769 68.4397 19.9798C67.7465 19.5536 67.4895 19.0826 67.6085 18.4266C67.6804 18.0429 67.7304 17.6545 67.7524 17.2662C67.8317 15.937 67.9301 14.6078 67.9404 13.2751C67.9404 12.9098 67.7759 12.4778 67.4954 12.186C65.5275 10.1421 63.9443 9.51717 61.1672 10.2754C60.5944 10.4317 60.0202 10.6051 59.4283 10.6764C58.4722 10.7993 58.133 10.558 58.0302 9.80438C57.9582 9.24833 57.948 8.6831 57.804 8.13739C57.5147 6.99313 56.6703 6.43707 55.1679 6.37618C54.6215 6.35206 54.0606 6.37274 53.5245 6.45545C51.865 6.7105 50.4375 6.49452 49.0893 5.59841C48.1421 4.96309 46.973 4.52077 45.851 4.06353C43.9007 3.26622 41.8931 2.55623 39.956 1.74169C38.7605 1.23274 37.5196 0.965058 36.1743 0.925997C35.5164 0.905317 34.8394 0.97769 34.1947 0.88693C32.0578 0.585929 30.3322 1.19597 28.6947 2.19663C26.8707 3.30988 25.0129 4.39441 23.1052 5.42149C20.5997 6.7714 17.8887 7.44808 14.834 6.68408L14.1892 6.58183C12.9468 6.27508 11.8247 6.52784 10.6851 6.94372C8.84787 7.61696 7.31905 8.57855 6.01346 9.76992C5.24684 10.4719 4.46848 10.7396 3.28477 10.3156C2.23325 9.94225 1.62528 10.0973 1.12448 10.743C-0.0709689 12.2894 -0.844928 14.8421 1.63702 16.6838C2.03796 16.9802 2.43887 17.2754 2.8633 17.55C4.58305 18.6632 4.81509 20.0626 4.18065 21.6434C3.90455 22.3407 3.59909 23.0404 3.4346 23.755C2.76638 26.6984 3.0601 29.4361 6.26901 31.5374C6.9387 31.9739 7.51145 32.5231 8.0475 33.0676C9.0065 34.043 9.73052 35.0793 9.29435 36.4039C8.96538 37.4012 8.82438 38.4351 8.50128 39.43C8.22812 40.271 8.22813 41.0292 8.86257 41.7806C9.0902 42.0471 9.25028 42.4309 9.21063 42.7399C9.10635 43.5476 9.32666 44.2748 9.77018 44.9894C10.2475 45.7534 10.2857 46.5116 9.97724 47.3606C9.47057 48.745 9.66592 50.0915 10.9113 51.2564C11.4429 51.7527 11.9247 52.2777 12.4563 52.774C13.2493 53.5093 13.64 54.2882 13.2684 55.2774C12.8469 56.393 13.0687 57.4579 13.7119 58.5298C15.0807 60.8103 15.9677 63.2287 15.9809 65.7562C15.9839 67.1888 16.1586 68.6892 15.0616 70.0184C14.1349 71.1374 14.6636 72.2656 15.6108 73.1192C16.9267 74.3071 17.5406 75.7041 18.1985 77.123C18.5069 77.7939 18.435 78.366 17.9518 78.96C16.5023 80.7476 16.423 82.6662 17.0119 84.6813C17.4261 86.0979 18.2411 87.3593 19.2266 88.5518C19.93 89.4031 20.4587 90.2832 20.657 91.2746C20.8215 92.1179 21.2489 92.8256 22.1036 93.3863C22.3738 93.5632 22.6352 93.863 22.6646 94.1273C22.8423 95.5312 23.2697 96.9155 22.7527 98.3551C22.2269 99.8176 22.6617 100.595 24.3682 101.39C25.5122 101.922 25.9322 102.678 25.9983 103.625C26.0483 104.356 25.9851 105.093 26.0321 105.824C26.1232 107.114 26.6269 108.28 27.9413 109.144C28.5361 109.536 29.1779 109.936 30.0194 109.658C30.8771 109.381 31.2266 108.779 31.2427 108.095C31.2662 107.281 31.2163 106.457 31.1473 105.641C31.0283 104.22 31.0944 102.87 32.9625 102.067L33.2063 101.895C35.1654 100.376 35.3695 98.7802 34.0081 96.8926C33.0095 95.5036 32.5527 94.0296 33.4457 92.4488C33.7981 91.8261 34.0904 91.1391 34.152 90.4658C34.2079 89.8064 34.1315 89.0585 33.7673 88.4818C33.0609 87.3708 32.1298 86.3426 31.253 85.2983C29.8755 83.6623 29.0971 81.9942 30.5789 80.1319L30.783 79.7791C32.19 77.7709 32.3148 75.7639 30.7243 73.7764C30.2382 73.1686 30.1751 72.5861 30.7214 71.9738C31.7362 70.8479 31.5365 69.7209 30.7434 68.5686C30.2735 67.8896 29.8652 67.175 29.5362 66.4489C28.9047 65.06 29.4775 64.2167 31.5908 63.6296C32.4294 64.3454 33.334 65.1553 34.2857 65.9296C35.7029 67.0762 37.4652 67.5185 39.4111 67.0842C40.8783 66.758 41.7448 67.2336 42.4585 68.0769C43.2178 68.9764 43.8625 69.9334 44.6409 70.818C45.2621 71.52 45.9391 72.2128 46.7292 72.7987C47.5546 73.4191 48.1979 73.3375 49.0232 72.7148C50.555 71.5476 50.8839 71.5269 52.3467 72.7171C53.1485 73.3777 54.0136 73.8487 55.2222 73.7361C56.1269 73.6488 56.7011 73.9452 57.0594 74.5645C57.8246 75.896 58.647 77.2114 59.3505 78.5614C60.2317 80.2582 61.6885 80.7936 63.7886 80.0997C64.0911 79.9997 64.3878 79.8826 64.6962 79.786C65.8829 79.4115 66.0048 79.392 66.6847 80.2915C67.5233 81.4002 68.2884 82.5479 68.9919 83.714C69.9362 85.2707 71.4871 86.292 73.5828 86.5793C74.8575 86.7562 75.5287 87.2249 76.0413 88.0349C76.3085 88.4599 76.6302 88.8666 76.896 89.2906C78.1326 91.2528 79.5321 93.0841 82.4224 93.8125L82.9746 94.0905C84.3991 94.8614 85.7429 95.661 85.8383 97.2039C85.9367 98.7376 86.7386 100.121 87.4685 101.52C87.9679 102.475 88.6948 103.243 89.8712 103.737C90.8272 104.142 91.4793 104.743 91.8597 105.556C92.2239 106.322 92.6659 107.07 93.1286 107.801C93.7762 108.814 94.9526 109.445 95.7779 109.274C96.6371 109.097 97.0894 108.358 97.0468 107.091C97.0307 106.536 96.6649 105.918 96.872 105.438C97.4154 104.207 96.9587 103.042 96.7208 101.869ZM46.5633 47.0217C46.2211 47.1917 45.7879 47.2618 45.3825 47.3308C44.4852 47.495 43.5482 47.5651 42.6773 47.7914C41.6919 48.0488 40.7153 48.3728 39.8077 48.7737C39.1101 49.0851 38.436 49.4987 37.9337 49.98C37.2097 50.6762 36.3579 51.1599 35.1948 51.5264C34.7997 51.2667 34.4223 50.96 33.9788 50.7268C32.0329 49.6997 30.8565 49.6262 29.3013 50.5395C28.8768 50.7888 28.3804 50.9566 27.5418 51.3265C27.7004 50.5142 27.743 49.9846 27.9178 49.4826C28.0779 49.0299 28.4069 48.6163 28.6213 48.174C29.2792 46.8161 29.078 46.2485 27.4934 45.4604C26.8428 45.1387 26.596 44.7688 26.6122 44.1978C26.6386 43.3362 26.6225 42.4722 26.6152 41.6083C26.6093 40.3353 25.9601 39.3829 24.4431 38.8097C23.4239 38.4236 23.3357 38.1456 23.5854 37.261C23.7425 36.721 23.8747 36.165 23.954 35.6135C24.233 33.7512 23.0435 32.4553 21.2944 31.3513C20.9948 31.1628 20.6893 30.8055 20.6996 30.531C20.7392 29.2121 20.1782 27.8932 20.8391 26.5686C21.2562 25.7276 20.5762 25.0532 19.8463 24.5098C18.7023 23.6665 18.5671 22.644 18.8506 21.5377C19.0841 20.6071 19.6304 20.3256 20.823 20.4555C21.149 20.4945 21.4912 20.4991 21.8025 20.5715C24.5121 21.2126 26.6445 20.4072 28.5317 18.9562C28.8445 18.7149 29.1734 18.4794 29.4789 18.2336C30.5158 17.396 31.7935 17.0996 33.2415 17.218C34.1756 17.2927 35.0949 17.4673 36.026 17.5063C37.2288 17.558 38.4331 17.5224 39.7739 17.5224C42.4042 21.2597 43.5321 21.7066 47.581 20.5543C48.5547 21.3229 49.6488 22.0202 48.9351 23.377C48.6091 24.002 48.9057 24.6683 49.4741 25.1911C50.2569 25.9137 51.0381 26.6386 51.8958 27.305C52.4774 27.7599 53.1882 28.1149 53.855 28.5239C53.4276 29.0765 53.2234 29.3695 52.984 29.6406C52.0074 30.7435 51.8136 31.5155 52.8754 32.4668C54.3425 33.7754 53.573 35.154 53.4878 36.5303L53.2807 36.8692C52.235 37.7906 51.1689 38.7028 50.1276 39.6265C49.0952 40.5398 48.7868 41.6807 48.5503 42.8307C48.4123 43.5096 48.3638 44.2024 48.2243 44.8837C48.0392 45.7614 47.5634 46.5334 46.5633 47.0217Z"/>
</mask>
<path d="M96.7208 101.869C96.3991 100.273 95.5635 98.8318 94.1037 97.6324C92.3487 96.1803 91.2766 94.5006 91.1121 92.4591C90.9227 90.1131 89.203 88.5668 86.4816 87.7442C85.5872 87.4719 84.9513 87.1031 84.5254 86.4667C84.0158 85.705 83.4342 84.964 83.0098 84.1747C82.4708 83.1752 81.5295 82.502 80.265 82.2814C78.789 82.0217 78.137 81.3198 77.8124 80.2892C77.6905 79.9113 77.5275 79.5413 77.4541 79.1576C76.9577 76.6864 75.2306 74.8747 72.5225 73.6258C71.6575 73.2249 71.2271 72.6666 70.8189 71.9738C69.9906 70.5722 69.2342 69.0775 68.0109 67.9057C66.2691 66.2364 64.075 64.9508 60.9792 65.9078L60.5885 65.8228C60.214 65.2093 59.8748 64.5246 59.4019 63.9019C58.2446 62.3923 57.4883 62.2579 55.5482 63.1333L55.2824 63.146C55.1135 62.8737 54.9344 62.5727 54.742 62.2717C54.0782 61.2331 53.4834 60.1601 52.7271 59.1629C52.05 58.2667 51.2305 57.4545 49.6297 57.5131C49.2229 57.528 48.7985 57.2305 48.0774 56.9662C48.8837 56.5285 49.3008 56.2379 49.781 56.0529C51.2775 55.4681 52.4084 54.6203 52.9723 53.3864C53.2293 52.8303 53.7066 52.5224 54.3469 52.3673C55.1326 52.1801 55.9404 52.0123 56.7569 51.956C58.9525 51.801 60.4094 50.7785 61.477 49.4309C62.5785 48.0419 63.3906 46.5196 63.7328 44.8779C63.9076 44.0301 64.097 43.258 65.2146 42.7422C65.7433 42.4986 66.0723 41.8518 66.2662 41.3383C66.5041 40.6846 66.6054 39.978 66.5951 39.2991C66.579 38.118 66.9564 37.1312 68.0417 36.2523C70.0273 34.6542 70.5897 32.6793 70.1257 30.5114C69.7512 28.7606 69.5133 27.0453 70.346 25.2933C71.3358 23.2196 70.7043 21.3769 68.4397 19.9798C67.7465 19.5536 67.4895 19.0826 67.6085 18.4266C67.6804 18.0429 67.7304 17.6545 67.7524 17.2662C67.8317 15.937 67.9301 14.6078 67.9404 13.2751C67.9404 12.9098 67.7759 12.4778 67.4954 12.186C65.5275 10.1421 63.9443 9.51717 61.1672 10.2754C60.5944 10.4317 60.0202 10.6051 59.4283 10.6764C58.4722 10.7993 58.133 10.558 58.0302 9.80438C57.9582 9.24833 57.948 8.6831 57.804 8.13739C57.5147 6.99313 56.6703 6.43707 55.1679 6.37618C54.6215 6.35206 54.0606 6.37274 53.5245 6.45545C51.865 6.7105 50.4375 6.49452 49.0893 5.59841C48.1421 4.96309 46.973 4.52077 45.851 4.06353C43.9007 3.26622 41.8931 2.55623 39.956 1.74169C38.7605 1.23274 37.5196 0.965058 36.1743 0.925997C35.5164 0.905317 34.8394 0.97769 34.1947 0.88693C32.0578 0.585929 30.3322 1.19597 28.6947 2.19663C26.8707 3.30988 25.0129 4.39441 23.1052 5.42149C20.5997 6.7714 17.8887 7.44808 14.834 6.68408L14.1892 6.58183C12.9468 6.27508 11.8247 6.52784 10.6851 6.94372C8.84787 7.61696 7.31905 8.57855 6.01346 9.76992C5.24684 10.4719 4.46848 10.7396 3.28477 10.3156C2.23325 9.94225 1.62528 10.0973 1.12448 10.743C-0.0709689 12.2894 -0.844928 14.8421 1.63702 16.6838C2.03796 16.9802 2.43887 17.2754 2.8633 17.55C4.58305 18.6632 4.81509 20.0626 4.18065 21.6434C3.90455 22.3407 3.59909 23.0404 3.4346 23.755C2.76638 26.6984 3.0601 29.4361 6.26901 31.5374C6.9387 31.9739 7.51145 32.5231 8.0475 33.0676C9.0065 34.043 9.73052 35.0793 9.29435 36.4039C8.96538 37.4012 8.82438 38.4351 8.50128 39.43C8.22812 40.271 8.22813 41.0292 8.86257 41.7806C9.0902 42.0471 9.25028 42.4309 9.21063 42.7399C9.10635 43.5476 9.32666 44.2748 9.77018 44.9894C10.2475 45.7534 10.2857 46.5116 9.97724 47.3606C9.47057 48.745 9.66592 50.0915 10.9113 51.2564C11.4429 51.7527 11.9247 52.2777 12.4563 52.774C13.2493 53.5093 13.64 54.2882 13.2684 55.2774C12.8469 56.393 13.0687 57.4579 13.7119 58.5298C15.0807 60.8103 15.9677 63.2287 15.9809 65.7562C15.9839 67.1888 16.1586 68.6892 15.0616 70.0184C14.1349 71.1374 14.6636 72.2656 15.6108 73.1192C16.9267 74.3071 17.5406 75.7041 18.1985 77.123C18.5069 77.7939 18.435 78.366 17.9518 78.96C16.5023 80.7476 16.423 82.6662 17.0119 84.6813C17.4261 86.0979 18.2411 87.3593 19.2266 88.5518C19.93 89.4031 20.4587 90.2832 20.657 91.2746C20.8215 92.1179 21.2489 92.8256 22.1036 93.3863C22.3738 93.5632 22.6352 93.863 22.6646 94.1273C22.8423 95.5312 23.2697 96.9155 22.7527 98.3551C22.2269 99.8176 22.6617 100.595 24.3682 101.39C25.5122 101.922 25.9322 102.678 25.9983 103.625C26.0483 104.356 25.9851 105.093 26.0321 105.824C26.1232 107.114 26.6269 108.28 27.9413 109.144C28.5361 109.536 29.1779 109.936 30.0194 109.658C30.8771 109.381 31.2266 108.779 31.2427 108.095C31.2662 107.281 31.2163 106.457 31.1473 105.641C31.0283 104.22 31.0944 102.87 32.9625 102.067L33.2063 101.895C35.1654 100.376 35.3695 98.7802 34.0081 96.8926C33.0095 95.5036 32.5527 94.0296 33.4457 92.4488C33.7981 91.8261 34.0904 91.1391 34.152 90.4658C34.2079 89.8064 34.1315 89.0585 33.7673 88.4818C33.0609 87.3708 32.1298 86.3426 31.253 85.2983C29.8755 83.6623 29.0971 81.9942 30.5789 80.1319L30.783 79.7791C32.19 77.7709 32.3148 75.7639 30.7243 73.7764C30.2382 73.1686 30.1751 72.5861 30.7214 71.9738C31.7362 70.8479 31.5365 69.7209 30.7434 68.5686C30.2735 67.8896 29.8652 67.175 29.5362 66.4489C28.9047 65.06 29.4775 64.2167 31.5908 63.6296C32.4294 64.3454 33.334 65.1553 34.2857 65.9296C35.7029 67.0762 37.4652 67.5185 39.4111 67.0842C40.8783 66.758 41.7448 67.2336 42.4585 68.0769C43.2178 68.9764 43.8625 69.9334 44.6409 70.818C45.2621 71.52 45.9391 72.2128 46.7292 72.7987C47.5546 73.4191 48.1979 73.3375 49.0232 72.7148C50.555 71.5476 50.8839 71.5269 52.3467 72.7171C53.1485 73.3777 54.0136 73.8487 55.2222 73.7361C56.1269 73.6488 56.7011 73.9452 57.0594 74.5645C57.8246 75.896 58.647 77.2114 59.3505 78.5614C60.2317 80.2582 61.6885 80.7936 63.7886 80.0997C64.0911 79.9997 64.3878 79.8826 64.6962 79.786C65.8829 79.4115 66.0048 79.392 66.6847 80.2915C67.5233 81.4002 68.2884 82.5479 68.9919 83.714C69.9362 85.2707 71.4871 86.292 73.5828 86.5793C74.8575 86.7562 75.5287 87.2249 76.0413 88.0349C76.3085 88.4599 76.6302 88.8666 76.896 89.2906C78.1326 91.2528 79.5321 93.0841 82.4224 93.8125L82.9746 94.0905C84.3991 94.8614 85.7429 95.661 85.8383 97.2039C85.9367 98.7376 86.7386 100.121 87.4685 101.52C87.9679 102.475 88.6948 103.243 89.8712 103.737C90.8272 104.142 91.4793 104.743 91.8597 105.556C92.2239 106.322 92.6659 107.07 93.1286 107.801C93.7762 108.814 94.9526 109.445 95.7779 109.274C96.6371 109.097 97.0894 108.358 97.0468 107.091C97.0307 106.536 96.6649 105.918 96.872 105.438C97.4154 104.207 96.9587 103.042 96.7208 101.869ZM46.5633 47.0217C46.2211 47.1917 45.7879 47.2618 45.3825 47.3308C44.4852 47.495 43.5482 47.5651 42.6773 47.7914C41.6919 48.0488 40.7153 48.3728 39.8077 48.7737C39.1101 49.0851 38.436 49.4987 37.9337 49.98C37.2097 50.6762 36.3579 51.1599 35.1948 51.5264C34.7997 51.2667 34.4223 50.96 33.9788 50.7268C32.0329 49.6997 30.8565 49.6262 29.3013 50.5395C28.8768 50.7888 28.3804 50.9566 27.5418 51.3265C27.7004 50.5142 27.743 49.9846 27.9178 49.4826C28.0779 49.0299 28.4069 48.6163 28.6213 48.174C29.2792 46.8161 29.078 46.2485 27.4934 45.4604C26.8428 45.1387 26.596 44.7688 26.6122 44.1978C26.6386 43.3362 26.6225 42.4722 26.6152 41.6083C26.6093 40.3353 25.9601 39.3829 24.4431 38.8097C23.4239 38.4236 23.3357 38.1456 23.5854 37.261C23.7425 36.721 23.8747 36.165 23.954 35.6135C24.233 33.7512 23.0435 32.4553 21.2944 31.3513C20.9948 31.1628 20.6893 30.8055 20.6996 30.531C20.7392 29.2121 20.1782 27.8932 20.8391 26.5686C21.2562 25.7276 20.5762 25.0532 19.8463 24.5098C18.7023 23.6665 18.5671 22.644 18.8506 21.5377C19.0841 20.6071 19.6304 20.3256 20.823 20.4555C21.149 20.4945 21.4912 20.4991 21.8025 20.5715C24.5121 21.2126 26.6445 20.4072 28.5317 18.9562C28.8445 18.7149 29.1734 18.4794 29.4789 18.2336C30.5158 17.396 31.7935 17.0996 33.2415 17.218C34.1756 17.2927 35.0949 17.4673 36.026 17.5063C37.2288 17.558 38.4331 17.5224 39.7739 17.5224C42.4042 21.2597 43.5321 21.7066 47.581 20.5543C48.5547 21.3229 49.6488 22.0202 48.9351 23.377C48.6091 24.002 48.9057 24.6683 49.4741 25.1911C50.2569 25.9137 51.0381 26.6386 51.8958 27.305C52.4774 27.7599 53.1882 28.1149 53.855 28.5239C53.4276 29.0765 53.2234 29.3695 52.984 29.6406C52.0074 30.7435 51.8136 31.5155 52.8754 32.4668C54.3425 33.7754 53.573 35.154 53.4878 36.5303L53.2807 36.8692C52.235 37.7906 51.1689 38.7028 50.1276 39.6265C49.0952 40.5398 48.7868 41.6807 48.5503 42.8307C48.4123 43.5096 48.3638 44.2024 48.2243 44.8837C48.0392 45.7614 47.5634 46.5334 46.5633 47.0217Z" fill="#11B0C8" stroke="#87F54E" stroke-width="2" mask="url(#path-1-inside-1_49_88)"/>
</g>
</svg>
