<svg width="37" height="43" viewBox="0 0 37 43" fill="none" xmlns="http://www.w3.org/2000/svg">
<path id="Vector" d="M10.8552 40.96C10.6423 40.3868 10.563 39.7733 10.5468 39.1747C10.5204 38.2315 10.2927 37.4491 9.18541 36.8506C7.98409 36.2084 7.69478 35.2307 7.97823 34.0968C8.28957 32.8686 7.78727 32.4539 6.18208 32.4229C5.92199 32.419 5.66174 32.4196 5.4016 32.4201C4.8891 32.4212 4.37705 32.4223 3.86757 32.3896C2.25944 32.2919 1.51045 31.7152 1.64556 30.4813L23.6248 35.2077C22.9507 35.4087 22.0534 35.5317 21.4219 35.3444C20.3865 35.0377 19.6595 35.2847 19.078 35.8223M10.8552 40.96C11.0168 41.392 11.3516 41.8251 11.7467 42.1583C12.4237 42.7396 13.371 42.804 14.0979 42.2778C14.725 41.8182 15.2845 41.2564 15.6957 40.6648M10.8552 40.96L11.3239 40.7859C11.3239 40.7858 11.3238 40.7857 11.3238 40.7855M10.8552 40.96L11.3235 40.7849C11.3236 40.7851 11.3237 40.7853 11.3238 40.7855M15.6957 40.6648C16.0191 40.1979 16.287 39.7067 16.5549 39.2155C16.8065 38.7542 17.058 38.2931 17.3553 37.8524C17.8414 37.1378 18.4097 36.4381 19.078 35.8223M15.6957 40.6648L15.2852 40.3794C15.285 40.3796 15.2849 40.3798 15.2847 40.38L15.2847 40.3801M15.6957 40.6648L15.2847 40.3801M19.078 35.8223L18.7391 35.4547M19.078 35.8223L18.7385 35.4552C18.7387 35.455 18.7389 35.4548 18.7391 35.4547M18.7391 35.4547C19.0794 35.1402 19.4809 34.8943 19.9649 34.7801C20.4488 34.6659 20.9791 34.6918 21.5639 34.865L21.564 34.865C22.0551 35.0107 22.838 34.9206 23.4819 34.7286L23.4827 34.7283C24.2268 34.5078 24.9433 34.1309 25.5532 33.7039C26.7971 32.8232 28.1242 32.5912 29.7019 32.7967C32.9475 33.2186 35.7509 31.5285 36.2247 29.216L36.2251 29.214C36.3101 28.8073 36.1961 28.2677 35.9267 27.9128C35.634 27.5309 35.2754 27.3557 34.8296 27.3459C34.356 27.3355 33.7491 27.5126 33.0078 27.93L32.789 27.5414L33.0077 27.93C31.9864 28.5049 31.0865 28.8279 30.1502 28.8335C29.2142 28.8391 28.3074 28.5271 27.2727 27.9608C27.0086 27.8167 26.7506 27.6653 26.5004 27.5186C26.4644 27.4975 26.4285 27.4764 26.3929 27.4556C26.1063 27.2878 25.828 27.1268 25.5428 26.9786L25.5412 26.9778C24.5887 26.4786 23.7005 26.3628 22.8404 26.9107L22.8393 26.9114C22.0258 27.4266 21.1924 27.397 20.3891 27.0734L20.3878 27.0729C19.395 26.6698 18.4624 26.8117 17.519 27.2803L17.5164 27.2816C17.1777 27.4474 16.8497 27.6274 16.5101 27.8137C16.4651 27.8384 16.4198 27.8632 16.3743 27.8882C15.9902 28.0985 15.5909 28.3138 15.1701 28.5053L15.1678 28.5064C14.5131 28.8004 13.8265 28.836 13.2706 28.5883C12.6954 28.332 12.3179 27.7933 12.3071 27.1002C12.2982 26.6769 12.4063 26.2289 12.6246 25.8439C12.6246 25.8438 12.6246 25.8438 12.6247 25.8437L13.0596 26.0904L18.7391 35.4547ZM15.2847 40.3801C14.9086 40.9211 14.3901 41.4436 13.8036 41.8736M15.2847 40.3801L13.8036 41.8736M11.3238 40.7855C11.1367 40.2817 11.0619 39.7277 11.0466 39.1612L11.0466 39.1607C11.0325 38.6578 10.9644 38.1402 10.7166 37.6557C10.4639 37.1617 10.049 36.749 9.42317 36.4107L9.42114 36.4096C8.90181 36.132 8.62379 35.8078 8.4891 35.4719C8.35224 35.1307 8.33892 34.7161 8.46312 34.2188C8.62962 33.5614 8.63813 32.8979 8.13512 32.4409C7.90557 32.2323 7.6118 32.1111 7.29716 32.0378C6.98115 31.9642 6.60987 31.931 6.19174 31.923L6.18952 31.9229C5.91063 31.9188 5.64141 31.9194 5.37743 31.92C4.87605 31.9212 4.39357 31.9224 3.89966 31.8906L3.89787 31.8905C3.12814 31.8437 2.67092 31.6848 2.42364 31.478C2.21388 31.3025 2.08794 31.0348 2.14259 30.5357L2.14266 30.535C2.20747 29.9354 2.47264 29.3352 2.77031 28.6615C2.81593 28.5582 2.86231 28.4533 2.90885 28.3463L2.90931 28.3452C2.96655 28.2128 3.06304 28.0728 3.21348 27.8852C3.25622 27.8319 3.30527 27.7725 3.35814 27.7084C3.47524 27.5667 3.61107 27.4022 3.73848 27.231L4.33295 26.4325H3.33741C3.17538 26.4325 3.04505 26.4341 2.93357 26.4356C2.74165 26.438 2.60555 26.4398 2.45965 26.4311L2.45942 26.431C1.82899 26.3936 1.37497 26.2171 1.11456 25.9911C0.879017 25.7866 0.774043 25.5231 0.85103 25.1617L0.851362 25.1601C1.01492 24.3801 1.42329 23.5795 1.92725 22.8188L1.92844 22.817C2.09022 22.5705 2.31998 22.3315 2.59955 22.0814C2.77495 21.9246 2.94891 21.781 3.13014 21.6315C3.24856 21.5338 3.37009 21.4335 3.49715 21.3252L3.49753 21.3249C4.43038 20.5287 5.00162 19.5662 5.07869 18.422L4.57982 18.3884M11.3238 40.7855L1.51043 22.5427C1.82865 22.0578 2.33026 21.6435 2.82505 21.2349C2.94223 21.1381 3.05903 21.0416 3.17293 20.9446C4.02766 20.2151 4.51373 19.3695 4.57982 18.3884M11.3238 40.7855C11.4484 41.1184 11.7228 41.4841 12.069 41.7761L12.0724 41.7789C12.5827 42.2172 13.2739 42.2562 13.8036 41.8736M11.3238 40.7855L13.8036 41.8736M4.57982 18.3884C4.68409 16.9052 5.16728 15.5553 6.0881 14.218C6.72056 13.2894 6.91351 12.1363 7.09393 11.0581C7.09742 11.0372 7.10091 11.0163 7.1044 10.9955M4.57982 18.3884L5.07859 18.4235C5.17614 17.0359 5.62592 15.7709 6.49992 14.5016L6.50136 14.4995C7.19674 13.4784 7.40533 12.2291 7.58059 11.1794C7.58621 11.1458 7.5918 11.1123 7.59736 11.0791M7.1044 10.9955L7.59722 11.0799C7.59727 11.0796 7.59731 11.0794 7.59736 11.0791M7.1044 10.9955C7.5538 8.37263 8.642 7.32603 11.9361 6.58732L7.1044 10.9955ZM7.59736 11.0791C7.813 9.82112 8.16729 9.02846 8.7923 8.45255C9.43283 7.86235 10.4214 7.43941 12.0455 7.0752L12.0455 7.07526L12.0534 7.07337L12.8159 6.88938M7.59736 11.0791L12.8159 6.88938M12.8159 6.88938C13.6944 6.76294 14.4563 6.51787 15.0393 6.07219C15.6436 5.61021 16.0128 4.96553 16.1479 4.13696C16.1753 3.97576 16.2844 3.75747 16.4869 3.51509C16.684 3.27911 16.9389 3.05722 17.1952 2.8888C19.0114 1.69609 21.1698 1.06417 23.5866 0.941424C24.5184 0.895589 25.2473 1.0853 25.7483 1.55447C26.5031 2.26514 27.3726 2.23056 28.1863 2.17239C29.4854 2.08227 30.7846 2.0463 32.0966 2.00997C32.5953 1.99617 33.0957 1.98231 33.5988 1.96541L33.5992 1.96539C34.5195 1.93365 35.1386 2.21995 35.4858 2.7429L35.4869 2.74451C35.6726 3.02188 35.7008 3.26333 35.649 3.49111C35.5927 3.73922 35.4302 4.01468 35.1557 4.30842C33.832 5.71865 31.9229 6.2894 29.6208 6.35866L29.6205 6.35867C28.6936 6.38708 27.7648 6.38488 26.8282 6.37913C26.8281 6.37913 26.828 6.37913 26.8279 6.37913L26.8249 6.87912C25.8638 6.87226 24.9594 7.01344 24.0669 7.37473C24.0554 7.35528 24.0435 7.33582 24.0314 7.31635L12.8159 6.88938ZM13.8036 41.8736C13.8032 41.8739 13.8028 41.8742 13.8024 41.8745L14.0979 42.2777L13.8048 41.8728C13.8044 41.873 13.804 41.8733 13.8036 41.8736Z" fill="#11B0C8" stroke="#87F54E"/>
</svg>
