<svg width="104" height="95" viewBox="0 0 104 95" fill="none" xmlns="http://www.w3.org/2000/svg">
<path id="Vector" d="M102.245 27.629L102.244 27.6286C101.636 27.3976 101.033 27.4926 100.346 27.7245C99.8919 27.8784 99.4379 28.0293 98.9853 28.1798C97.5679 28.6511 96.1645 29.1177 94.8034 29.6531L94.8023 29.6536C93.6203 30.1153 92.4612 30.5988 91.6515 31.266C90.2117 32.4551 88.4686 33.2557 86.7644 33.9977C86.5974 34.0704 86.4309 34.1426 86.2649 34.2144C84.7151 34.8856 83.2194 35.5334 81.9263 36.4128L81.8787 36.4453L81.8249 36.466L81.5297 36.5797L81.5151 36.5853L81.5002 36.59C80.7182 36.8364 79.9342 37.096 79.1463 37.3568C77.2948 37.9698 75.4214 38.59 73.4996 39.0641L73.4993 39.0641C73.1699 39.1452 72.8453 39.2207 72.5256 39.295C71.6629 39.4955 70.8368 39.6875 70.0517 39.9594C68.9919 40.3265 68.0697 40.8212 67.3484 41.6231L66.5772 42.4807L66.4785 41.3315C66.4333 40.8048 66.4913 40.3364 66.7006 39.8923L66.7022 39.889C66.9045 39.4677 66.9507 39.0857 66.8871 38.7255C66.8222 38.3584 66.6365 37.9786 66.3188 37.5811L66.3178 37.5799C66.0714 37.2695 65.8074 36.9655 65.5347 36.6516L65.5122 36.6257C65.2346 36.306 64.9486 35.976 64.6808 35.6348C64.6688 35.6197 64.6563 35.604 64.6434 35.5879C64.5308 35.4468 64.3882 35.2682 64.2744 35.0842C64.1507 34.8842 64.0129 34.605 64.0198 34.2883L64.0199 34.2826L64.0199 34.2826C64.0405 33.6599 63.7007 33.1805 63.0961 32.5303L63.094 32.528C62.6644 32.06 62.261 31.378 62.2357 30.7M102.245 27.629L62.7353 30.6814M102.245 27.629C102.804 27.84 102.969 28.0599 102.999 28.1604C103.013 28.2075 103.037 28.3927 102.634 28.7272L102.63 28.7307C101.219 29.9275 99.7757 31.105 98.2656 32.2168L98.2651 32.2172C95.6772 34.1278 92.8915 35.8182 89.7415 37.1205L89.7402 37.121C88.6344 37.5818 87.6404 38.2211 86.726 38.8474L86.7259 38.8474C85.2036 39.8906 83.6009 40.7638 81.7279 41.3156L102.245 27.629ZM62.2357 30.7L62.7353 30.6814M62.2357 30.7C62.2357 30.7001 62.2357 30.7002 62.2357 30.7003L62.7353 30.6814M62.2357 30.7C62.1759 29.1263 62.1562 27.5384 62.1366 25.9587C62.123 24.8646 62.1095 23.7744 62.0827 22.6954L62.0827 22.695C62.0689 22.1184 61.9051 21.6222 61.5919 21.1924C61.2754 20.7579 60.7878 20.3661 60.0903 20.035L60.0902 20.035C59.8392 19.9157 59.5705 19.7519 59.3404 19.5602C59.1207 19.377 58.8858 19.1268 58.7777 18.8225L58.777 18.8205C58.4514 17.8919 57.9874 17.0099 57.5039 16.0907C57.3303 15.7608 57.1542 15.426 56.9811 15.0826C56.3409 13.8128 55.7613 12.455 55.6789 10.9536C55.679 10.9547 55.6791 10.9557 55.6792 10.9568L56.1779 10.9221C56.2731 12.677 57.1024 14.2532 57.932 15.8298C58.421 16.7592 58.91 17.6887 59.2488 18.6551C59.3766 19.0147 59.8671 19.3754 60.3047 19.5834C61.8101 20.2979 62.5503 21.3411 62.5826 22.683C62.6097 23.7767 62.6232 24.8711 62.6368 25.9657C62.6562 27.5373 62.6756 29.1095 62.7353 30.6814M42.163 70.4641C42.469 70.1827 42.7869 69.9084 43.105 69.6341C43.639 69.1735 44.1731 68.7127 44.6508 68.2181C45.1355 67.7183 45.579 67.137 45.7699 66.5338C46.3735 64.6715 47.7349 63.3078 49.7601 62.2692M42.163 70.4641L41.825 70.0957M42.163 70.4641L41.8246 70.0961C41.8247 70.0959 41.8248 70.0958 41.825 70.0957M42.163 70.4641C40.339 72.138 38.5781 73.836 37.5178 75.9235C36.9201 77.0987 35.8773 78.0557 34.4513 78.729L34.2393 78.2762C34.2392 78.2762 34.2392 78.2762 34.2391 78.2762C35.5836 77.6412 36.5337 76.7554 37.072 75.697M41.825 70.0957C42.1572 69.7902 42.4858 69.5071 42.8072 69.2302C43.3257 68.7835 43.8254 68.3531 44.2912 67.8707L44.2919 67.87C44.7581 67.3893 45.1374 66.8753 45.2933 66.3829L45.2943 66.3797C45.95 64.3565 47.4264 62.9043 49.5313 61.8247M49.5313 61.8247L49.7601 62.2692M49.5313 61.8247C49.5315 61.8246 49.5317 61.8245 49.532 61.8243L49.7601 62.2692M49.5313 61.8247C51.2047 60.9634 52.8537 60.0875 54.5066 59.2095C55.6279 58.6139 56.751 58.0174 57.8846 57.4239L57.8854 57.4234C59.0331 56.8253 59.8618 56.0489 60.4778 55.0936L60.4785 55.0926C60.9223 54.408 61.4813 53.7607 62.0989 53.1796M49.7601 62.2692C51.4347 61.4074 53.0904 60.5279 54.7467 59.6482C55.8677 59.0527 56.989 58.4572 58.1165 57.8668C59.3399 57.2292 60.2342 56.394 60.898 55.3646C61.3166 54.7189 61.8483 54.102 62.4416 53.5437M62.0989 53.1796C62.0986 53.1798 62.0983 53.1801 62.098 53.1804L62.4416 53.5437M62.0989 53.1796L62.4416 53.5437M62.0989 53.1796C63.8815 51.4938 66.151 50.4696 68.7827 49.8648L68.8946 50.3521C66.3202 50.9438 64.1408 51.9364 62.4416 53.5437M37.072 75.697L37.5118 75.9204L37.0721 75.6968C37.0721 75.6969 37.072 75.6969 37.072 75.697Z" fill="#11B0C8" stroke="#87F54E"/>
</svg>
