<svg width="49" height="77" viewBox="0 0 49 77" fill="none" xmlns="http://www.w3.org/2000/svg">
<path id="Vector" d="M47.1592 10.1406L47.1572 10.1409C46.8699 10.1784 46.5867 10.2108 46.308 10.2428C45.3935 10.3477 44.5281 10.4469 43.7311 10.6976L43.7302 10.6979C42.4427 11.1004 41.1778 11.6333 40.1031 12.2863L40.1031 12.2863C37.0384 14.1478 34.0388 16.0792 31.0336 18.0141C30.7665 18.1861 30.4993 18.3582 30.232 18.5302C30.1246 18.5997 30.0139 18.676 29.8988 18.7553C29.2304 19.2163 28.4137 19.7794 27.2328 19.6908M47.1592 10.1406L19.4578 23.541M47.1592 10.1406C47.6609 10.0732 47.9828 10.2306 48.1824 10.5229L47.1592 10.1406ZM27.2328 19.6908C27.2324 19.6908 27.232 19.6907 27.2316 19.6907L27.2692 19.1924L27.233 19.6908C27.233 19.6908 27.2329 19.6908 27.2328 19.6908ZM27.2328 19.6908C26.3564 19.6272 25.6437 19.8911 24.9546 20.3234L24.9535 20.3241C24.444 20.6418 23.9217 20.9814 23.3944 21.3243C22.7208 21.7623 22.039 22.2056 21.3654 22.6155L21.3645 22.616C20.7898 22.9641 20.1524 23.3031 19.4578 23.541M19.4578 23.541L19.2947 23.0685L19.4566 23.5414C19.457 23.5413 19.4574 23.5411 19.4578 23.541ZM41.3723 67.3259C41.4105 67.4167 41.4485 67.5076 41.4866 67.5984C41.7231 68.1636 41.9593 68.7278 42.2402 69.2801M41.3723 67.3259L33.7399 69.8166L34.2349 69.746C34.2349 69.7461 34.235 69.7463 34.235 69.7464C34.2421 69.796 34.249 69.8451 34.2558 69.8937C34.3544 70.5928 34.4384 71.188 34.7509 71.6681L34.7512 71.6687C35.4494 72.7446 36.0241 73.8673 36.1469 75.1812L36.147 75.1825C36.1915 75.6709 36.7167 76.1203 37.6598 76.1317C38.196 76.1369 38.511 76.0495 38.7135 75.9134C38.9057 75.7842 39.0672 75.5632 39.1895 75.1361L39.1903 75.1331C39.212 75.0592 39.219 74.9973 39.2319 74.8831C39.2397 74.8148 39.2495 74.7279 39.2659 74.6085L39.3258 74.1705L39.7678 74.1764C40.5759 74.187 41.0992 74.1044 41.4303 73.9476C41.7192 73.8109 41.8807 73.6107 41.9552 73.2585L41.9553 73.2579C42.2427 71.9078 42.3909 70.6847 41.7946 69.5068C41.7944 69.5065 41.7943 69.5063 41.7942 69.506L42.2402 69.2801M41.3723 67.3259C39.7553 63.4784 38.2001 59.6297 37.9313 55.5237L41.3723 67.3259ZM42.2402 69.2801C42.9217 70.6254 42.7337 72.0029 42.4444 73.362L42.2402 69.2801ZM11.0012 50.7235C11.0012 50.7233 11.0013 50.7232 11.0013 50.723L11.4846 50.8512L11.0012 50.7235ZM11.0012 50.7235C10.8649 51.2372 10.73 51.7501 10.5953 52.2624C10.2977 53.394 10.0009 54.5228 9.69108 55.6517C9.57616 56.0689 9.46311 56.4399 9.27166 56.7608C8.33237 58.3139 7.62041 59.9171 6.9665 61.529M11.0012 50.7235L6.9665 61.529M6.9665 61.529C6.96662 61.5287 6.96674 61.5284 6.96686 61.5281L7.42908 61.7169L6.96642 61.5292C6.96644 61.5292 6.96647 61.5291 6.9665 61.529ZM1.98019 60.0775C1.98026 60.0773 1.98033 60.077 1.9804 60.0768L1.4995 59.9399L1.97998 60.0782C1.98005 60.078 1.98012 60.0777 1.98019 60.0775ZM1.98019 60.0775C2.07248 59.757 2.15746 59.4422 2.24102 59.1327C2.57714 57.8876 2.89031 56.7276 3.56423 55.6191L3.56455 55.6186C3.85091 55.1462 4.04987 54.6346 4.17227 54.127L1.98019 60.0775ZM35.4871 20.4358C33.0061 21.1678 31.7515 22.7705 31.1766 24.6364L31.1764 24.6371C30.3329 27.3892 28.0805 29.0894 24.6525 30.1168L24.6523 30.1168C23.9915 30.3152 23.3487 30.5002 22.7025 30.6862C22.1235 30.8528 21.5419 31.0202 20.9423 31.1987L20.9411 31.1991C19.852 31.5261 19.0458 32.1587 18.7081 32.9891C18.3621 33.8399 18.5563 34.7791 19.2328 35.5803L19.2337 35.5814C19.6091 36.0234 19.9448 36.4725 20.2912 36.9358C20.4648 37.168 20.641 37.4037 20.8263 37.6439C20.873 37.7052 20.9239 37.7753 20.9784 37.8505C21.1162 38.0405 21.2773 38.2626 21.454 38.4545C22.0279 39.0788 22.6037 39.7 23.1788 40.3206C24.2182 41.4419 25.2556 42.5612 26.2766 43.6931C27.1043 44.612 28.269 44.8969 29.3996 45.0455L29.4002 45.0456C30.8589 45.2355 31.7944 45.5231 32.4197 45.9861C33.02 46.4307 33.3959 47.0846 33.6172 48.1697C33.9879 49.9973 34.9232 51.5286 36.1153 52.9984C36.8025 53.8508 37.3751 54.7594 37.4325 55.5578L36.9532 20.3835L36.7858 19.9123C36.7854 19.9125 36.785 19.9126 36.7845 19.9128C36.5711 19.9887 36.3649 20.0803 36.1789 20.163C36.1501 20.1758 36.1217 20.1884 36.0938 20.2007C35.8782 20.2959 35.6849 20.3774 35.4871 20.4358ZM35.4871 20.4358L35.6274 20.9115L35.4869 20.4359C35.4869 20.4359 35.487 20.4359 35.4871 20.4358ZM15.4142 14.207C15.4372 14.5206 15.5016 14.9105 15.7579 15.2444L15.632 11.1501C15.8805 11.5558 15.8701 12.0607 15.8598 12.5675C15.8546 12.8184 15.8495 13.0699 15.8757 13.31L15.3785 13.3628C15.3786 13.363 15.3786 13.3632 15.3786 13.3634C15.3907 13.4778 15.3946 13.6021 15.3976 13.7473C15.3979 13.763 15.3982 13.7789 15.3985 13.7951C15.401 13.9226 15.4038 14.0662 15.4142 14.207ZM14.7529 9.67437C14.7153 10.2436 14.8401 10.8196 15.2061 11.4121L4.17236 54.1267C4.81779 51.4584 5.4351 48.7896 6.04473 46.1178C6.13958 45.7024 6.24787 45.1972 6.14699 44.6902C6.03872 44.1459 5.70921 43.6702 5.09211 43.2575L5.09085 43.2567C4.75176 43.0314 4.67707 42.7896 4.69476 42.547C4.71571 42.2597 4.87646 41.9156 5.13298 41.583C6.59464 39.6992 6.96821 37.6655 7.003 35.6021C7.00981 35.2468 7.11966 34.9003 7.25312 34.4794C7.29073 34.3608 7.3302 34.2363 7.3698 34.104L7.37094 34.1001C7.51917 33.5894 7.68111 33.0854 7.84503 32.5751C7.91591 32.3545 7.98716 32.1328 8.05783 31.9088L8.19262 31.4817L7.78281 31.3009L7.39217 31.1286L7.12229 31.0095L6.88757 31.1881C6.80552 31.2506 6.71348 31.3174 6.61651 31.3879C6.37783 31.5613 6.10928 31.7564 5.88632 31.9606L5.88568 31.9612C5.46132 32.3513 5.0439 32.7548 4.63255 33.1525C4.38377 33.393 4.1372 33.6314 3.89266 33.8633C3.39396 34.3306 2.89088 34.585 2.20211 34.4042L2.20085 34.4039C1.30499 34.1713 0.869573 33.6931 0.777368 33.113C0.70652 32.661 0.722715 32.2041 0.862582 31.8324C1.11688 31.1683 1.40864 30.5115 1.70696 29.8417L1.72405 29.8033C2.01517 29.1498 2.312 28.4834 2.57355 27.807C2.81546 27.1876 2.98772 26.5324 3.15112 25.9108C3.22086 25.6456 3.28898 25.3865 3.36021 25.1389C3.44664 24.8428 3.52323 24.5269 3.59639 24.2251C3.63808 24.0531 3.67867 23.8857 3.71934 23.7292C3.83703 23.2761 3.96814 22.856 4.16194 22.466C5.63384 19.5061 6.52726 16.4224 7.20139 13.3624L7.20144 13.3622C7.47043 12.1386 7.53319 10.8972 7.53819 9.67614C7.54035 9.14838 7.5322 8.63777 7.52413 8.13305C7.51307 7.44039 7.50218 6.75882 7.51838 6.0592C7.52712 5.72785 7.50695 5.39086 7.48836 5.08012C7.48373 5.00267 7.47919 4.92686 7.47522 4.85317C7.45461 4.4702 7.44745 4.12494 7.49411 3.79556C7.55865 3.3743 7.79206 2.89881 8.12768 2.50796C8.54256 2.0256 8.75598 1.8805 9.02598 1.82787C9.35587 1.76357 9.83427 1.8219 10.8369 2.02006L11.0241 2.05705L11.1883 1.95995C11.375 1.84958 11.5712 1.73433 11.7727 1.61597C11.9152 1.53221 12.0605 1.44689 12.2069 1.36063L12.2082 1.35984C13.0868 0.838561 13.9439 0.734879 14.6017 0.923618C15.2455 1.10831 15.745 1.58306 15.9391 2.34264L15.9395 2.34414C16.3438 3.90608 16.1785 5.46923 15.6324 7.04461L15.6319 7.04603C15.5434 7.30404 15.4345 7.55259 15.3164 7.82221C15.2749 7.91694 15.2323 8.01428 15.189 8.11554C14.9774 8.60154 14.7893 9.12191 14.7529 9.67437Z" fill="#11B0C8" stroke="#87F54E"/>
</svg>
