<svg width="15" height="44" viewBox="0 0 15 44" fill="none" xmlns="http://www.w3.org/2000/svg">
<path id="Vector" d="M1.31564 8.60288C1.06597 9.53116 1.22896 10.3239 2.47581 10.7627L2.64029 13.7429L3.08537 13.9707C3.08549 13.9705 3.08561 13.9702 3.08574 13.97C3.11218 13.9183 3.13945 13.8656 3.16725 13.8118C3.4019 13.3578 3.67425 12.831 3.80398 12.2815L3.80403 12.2813C3.8908 11.9132 3.88643 11.5019 3.68742 11.1226C3.48645 10.7395 3.12544 10.4621 2.64244 10.2913L2.64181 10.2911C2.09951 10.1002 1.88223 9.86587 1.79081 9.66186C1.69328 9.44423 1.68701 9.14752 1.79831 8.73337M1.31564 8.60288L1.79812 8.73405C1.79819 8.73382 1.79825 8.73359 1.79831 8.73337M1.31564 8.60288C1.33716 8.52369 1.35483 8.44362 1.37248 8.36366C1.41141 8.18723 1.45021 8.01138 1.53005 7.84694L1.79831 8.73337M1.31564 8.60288L1.79848 8.73274C1.79842 8.73295 1.79837 8.73316 1.79831 8.73337M12.0024 17.2791C11.2565 16.9416 10.7412 16.5204 10.4149 15.9911C10.0909 15.4656 9.98622 14.8864 9.96398 14.2973C9.89888 12.5876 10.2752 10.9591 11.0403 9.38188L11.0405 9.38132C11.5626 8.30849 11.7498 7.34205 11.2015 6.46592L12.0024 17.2791ZM12.0024 17.2791C13.1439 17.8028 13.657 18.4506 13.8019 19.0383C13.946 19.6233 13.7592 20.286 13.2052 20.9191L13.2042 20.9202C12.9052 21.264 12.6523 21.6263 12.4171 21.9688C12.3956 22.0001 12.3742 22.0313 12.353 22.0623C12.1379 22.376 11.9363 22.6702 11.7097 22.9499L11.7096 22.9499C11.3307 23.4177 11.1068 23.9202 11.0809 24.4575C11.055 24.9938 11.2293 25.5057 11.5397 25.988L11.5396 25.9881L11.545 25.9961L11.6992 26.2259L11.6992 26.2259L11.7016 26.2295C12.6877 27.6715 12.8962 29.0916 12.1648 30.582L12.1648 30.582L12.1625 30.5867C12.076 30.7678 12.0065 30.9628 11.9482 31.1264C11.9322 31.1713 11.9171 31.2138 11.9026 31.2531C11.8294 31.4522 11.7625 31.6053 11.6714 31.7349L11.6714 31.7349L11.6687 31.7389C10.0641 34.0697 9.74149 36.5527 9.96852 39.0877L9.96873 39.0899C10.04 39.8481 9.91915 40.614 9.78808 41.4448C9.75704 41.6415 9.72543 41.8419 9.69564 42.0466L9.69515 42.0502C9.66907 42.2391 9.53263 42.4851 9.31667 42.7611C8.96666 43.1894 8.54049 43.4033 8.10831 43.4369C7.67216 43.4708 7.18059 43.3244 6.70438 42.9398C5.83866 42.238 5.56003 41.3471 5.50854 40.338L12.0024 17.2791ZM5.54444 38.1449H5.49614C5.495 38.262 5.49362 38.3784 5.49224 38.4942C5.48484 39.1174 5.47765 39.7234 5.50852 40.3377L5.54444 38.1449ZM5.54444 38.1449V37.6449M5.54444 38.1449V37.6449M5.54444 37.6449C5.54444 37.3939 5.54281 37.1461 5.5412 36.9001C5.53773 36.3729 5.53432 35.8543 5.54714 35.3321C5.5798 34.3808 5.32629 33.4762 4.62815 32.6633C4.04384 31.9789 3.86169 31.3024 4.08306 30.5505M5.54444 37.6449L4.08306 30.5505M10.4879 2.38938V1.95211C10.4507 1.56845 10.325 1.3466 10.1412 1.19904C9.93561 1.03395 9.58612 0.904173 8.99653 0.86088C7.94752 0.78987 6.99848 0.975647 6.12708 1.42983C5.76894 1.61891 5.22842 1.83763 4.71078 1.81279L10.4879 2.38938ZM10.4879 2.38938C10.1695 3.80295 10.3745 5.14485 11.2014 6.46588L10.4879 2.38938ZM3.97809 21.789C4.02839 20.9071 3.53719 20.2325 2.77087 19.7702L3.97809 21.789ZM3.97809 21.789C3.96206 22.0756 3.94937 22.3674 3.93654 22.6626C3.89333 23.656 3.84842 24.6888 3.6688 25.6984C3.6587 25.7565 3.64866 25.8134 3.63882 25.8692C3.49045 26.7112 3.38655 27.3007 3.73911 27.8837L3.97809 21.789ZM4.08306 30.5505C4.35228 29.6494 4.26402 28.7495 3.73926 27.8839L4.08306 30.5505ZM11.9601 25.7174C11.4211 24.8799 11.4402 24.0769 12.0981 23.2646C12.3381 22.9685 12.5511 22.6577 12.7642 22.3468C13.0207 21.9725 13.2774 21.5979 13.5815 21.2484C14.8401 19.81 14.6624 17.9489 12.2098 16.8241L11.9601 25.7174ZM1.49715 18.3145C1.35683 17.8134 1.42933 17.2313 1.71627 16.5608L2.77082 19.7702C2.00372 19.3073 1.63537 18.8082 1.49715 18.3145Z" fill="#11B0C8" stroke="#87F54E"/>
</svg>
