<svg width="82" height="108" viewBox="0 0 82 108" fill="none" xmlns="http://www.w3.org/2000/svg">
<g id="Vector">
<mask id="path-1-inside-1_49_87" fill="white">
<path d="M80.8935 103.895C81.1035 101.733 80.3383 99.8324 78.8227 98.0333C77.2762 96.2032 76.5052 94.226 77.6683 92.0443L77.8534 91.548C78.5378 89.5823 78.2235 87.7671 76.3672 86.2598C74.9734 85.1259 74.5916 83.8242 74.9984 82.3272C75.5374 80.3604 75.3597 78.536 73.8456 76.7725C72.5326 75.2422 72.3065 73.5523 73.3492 71.7417C74.2303 70.2217 74.8045 68.5811 75.3626 66.9635C75.7973 65.7032 75.8018 64.3683 75.1923 63.1424C74.7003 62.1418 74.8281 61.2342 75.1336 60.2496C75.4596 59.211 75.6416 58.138 75.8179 57.0765C75.9559 56.2596 75.6079 55.5358 74.8281 54.9752C73.803 54.2399 73.4475 53.3254 73.6179 52.2823C73.8235 51.0863 74.1187 49.903 73.3198 48.7518C73.1773 48.5508 73.2611 48.2429 73.2831 47.9855C73.4814 45.9072 72.8101 43.9737 71.7674 42.0907C71.1697 41.0062 70.9172 39.8642 71.0728 38.6832C71.3768 36.3924 71.1918 34.1062 70.6822 31.8613C70.1329 29.4464 69.2679 27.0797 68.6173 24.6786C68.3912 23.848 68.2428 22.9737 68.3089 22.1327C68.444 20.4175 68.7069 18.7045 69.0006 16.9973C69.3545 14.9397 69.9993 12.9442 71.1331 11.0462C72.2213 9.20921 73.2317 7.34231 74.2392 5.47771C74.6005 4.80448 74.9103 4.10712 75.1262 3.39713C75.3906 2.54353 75.3773 1.68188 74.7164 0.905253C73.8382 -0.125275 72.6809 -0.318287 71.5295 0.545656C70.5926 1.25795 69.707 2.07135 69.077 2.96056C67.8419 4.70913 66.4203 6.32901 64.7079 7.80875C63.5154 8.83927 63.0057 10.0697 62.9323 11.4736C62.7972 14.2022 62.0012 16.7584 59.4752 18.8229C58.7555 19.4122 58.124 20.0751 57.5439 20.7541C56.958 21.4273 56.3441 22.1247 56.0107 22.8841C55.2191 24.6706 54.357 26.472 53.9532 28.3274C53.4171 30.7986 52.5888 33.1905 51.7503 35.6031C51.0541 37.6067 49.8632 39.253 48.0685 40.6983C46.9318 41.6139 46.1358 42.6985 45.6394 43.8967C45.0447 45.3317 44.5247 46.7827 44.0283 48.2406C43.8051 48.9046 43.6495 49.5905 43.5672 50.2718C43.1854 53.5322 42.8828 56.7996 42.4598 60.052C42.357 60.8229 42.4467 61.6788 41.7623 62.3796L41.47 62.1797C40.3788 61.0044 40.2467 59.643 40.0793 58.254C39.6901 54.9982 39.2671 51.7503 39.436 48.4715C39.4845 47.4812 39.436 46.4886 39.4742 45.4982C39.508 44.6883 39.0747 44.0863 38.2905 43.6026C37.9909 43.42 37.6825 43.2511 37.3374 43.05C37.399 42.44 37.4622 41.8414 37.5224 41.2452C37.6634 39.7896 37.4093 38.4373 36.2065 37.2161C35.7762 36.7841 35.5897 36.0994 35.5955 35.5342C35.6117 34.074 35.7865 32.6103 35.9363 31.1524C36.0509 29.9438 35.4942 28.9616 34.4163 28.1309C34.1402 27.923 33.7819 27.753 33.5851 27.5083C33.2767 27.128 32.8287 26.688 32.8595 26.2916C32.9535 24.8797 33.1122 23.4574 33.4632 22.0741C33.7393 20.9839 34.3737 19.9522 34.7731 18.8769C35.4883 16.933 36.2389 14.996 36.8043 13.0234C37.0936 12.0147 36.4533 11.3105 35.3665 10.9279C34.3282 10.5545 33.4588 10.6453 32.629 11.5322C31.1971 13.0556 29.8592 14.6422 28.6446 16.269C28.1086 16.9916 27.8883 17.8762 27.6474 18.7103C27.2494 20.1096 26.8235 21.5009 25.4871 22.5601C24.0434 23.7067 23.2534 25.1037 22.7423 26.6282C22.6601 26.8798 22.4955 27.1165 22.3046 27.4818C21.4044 25.6666 21.0358 25.4886 19.084 25.8539C19.0135 25.6069 18.9885 25.3472 18.8666 25.1175C18.3247 24.0915 17.2922 23.9318 16.32 24.7521C15.9132 25.091 15.4976 25.4828 15.2979 25.9113C14.5445 27.5289 13.7867 29.15 13.1964 30.8032C12.6118 32.4621 12.3152 34.182 11.7483 35.8432C10.4911 39.5 9.56886 43.235 7.55245 46.7172C7.30719 47.1411 7.21472 47.6248 7.1031 48.0878C6.5186 50.5797 6.60671 53.0589 7.27933 55.5358C8.0856 58.4827 8.00625 61.4456 7.4188 64.4085C7.04284 66.3236 5.60797 67.8022 4.05859 69.2199C1.60601 71.459 0.535419 74.0359 0.84089 76.9862C0.987751 78.4211 1.3769 79.786 2.11562 81.1049C3.39918 83.3819 3.87208 85.7152 2.71188 88.1301C2.51656 88.5322 2.37564 88.9596 2.31102 89.3824C2.13626 90.4531 2.08336 91.502 2.70605 92.5487C3.05852 93.1472 3.21565 93.8675 3.22299 94.5362C3.24649 97.1671 3.16567 99.7957 3.1598 102.427C3.15686 102.891 3.26704 103.37 3.43005 103.82C3.65622 104.473 4.14235 105.008 5.03527 105.17C6.00015 105.345 6.59194 104.852 7.09127 104.32C7.98566 103.365 8.61717 102.311 8.7699 101.126C9.046 98.9949 9.94038 97.0246 11.0037 95.0715C11.4839 94.1812 11.6822 93.161 11.7644 92.1879C11.9215 90.2808 11.3855 88.4185 10.8789 86.5608C10.754 86.1058 10.663 85.6095 10.7643 85.1592C11.2681 82.9442 12.3489 80.8946 14.5019 79.3839C16.2745 78.1305 17.0103 76.7162 16.7048 74.9113C16.6358 74.4817 16.6784 74.0394 16.5624 73.62C16.1982 72.3207 16.414 71.0684 16.7856 69.7874C17.2923 68.0262 17.8636 66.2547 18.0515 64.4613C18.3629 61.4846 19.0135 58.5746 19.9093 55.684C20.5335 53.6781 20.5453 51.6872 19.6289 49.7054C18.7418 47.7764 18.8197 45.8222 19.6788 43.8703C20.1062 42.8949 20.3411 41.8713 20.7538 40.8925C21.2076 39.8068 21.5219 38.6556 22.8113 37.5516C22.9156 38.1766 23.061 38.581 23.0375 38.9739C22.9479 40.2652 22.8334 41.5542 22.6689 42.834C22.4618 44.4987 22.917 45.9245 24.8027 46.8999C25.6413 47.3295 26.0716 47.9488 26.2347 48.7105C26.4006 49.4744 26.8911 50.1948 27.7297 50.4958C29.7153 51.2138 30.0472 52.5476 30.2322 53.9952L30.2807 54.3812C30.6728 56.9581 31.2514 59.4707 32.8874 61.8052C33.5483 62.7461 33.6379 63.942 33.9302 65.0312C34.127 65.7423 34.0447 66.5281 34.3928 67.183C35.0801 68.4869 34.9655 69.7817 34.7908 71.1236C34.4324 73.9808 35.4193 75.6317 38.6532 76.1326C39.4536 76.2555 39.9001 76.6369 39.975 77.2826C40.0587 77.9237 40.1659 78.5624 40.2716 79.2035C40.5477 80.8751 40.8797 82.5409 42.2132 83.946C42.993 84.7663 43.9887 85.2396 45.3531 84.9926C46.4795 84.787 47.4076 83.8897 47.5325 82.7971C47.6514 81.8091 47.7527 80.8107 47.6807 79.8262C47.4825 77.1413 48.49 74.7321 50.1245 72.4172C50.5901 71.7566 50.9587 70.9949 51.0895 70.2481C51.3274 68.8879 51.4096 67.5047 51.461 66.1283C51.5565 63.6445 52.1292 61.3215 54.6831 59.5867L55.015 59.2983C57.309 56.8398 58.6087 54.1836 57.8025 51.0771C57.1886 48.6909 57.7173 46.3656 58.5294 44.0668C58.6865 43.6164 58.923 43.1821 59.1271 42.7398C59.4061 43.2695 59.4061 43.7428 59.4061 44.2161C59.4091 45.6775 59.9819 46.9194 61.5885 47.7914C61.9895 48.0097 62.3287 48.3083 62.6548 48.6013C63.4508 49.3239 63.8737 50.1385 63.5256 51.1058C63.2025 52.0192 62.878 52.9291 62.5226 53.8378C61.8323 55.6048 60.8234 57.3372 60.4915 59.1433C60.0215 61.7041 60.1816 64.3097 61.4578 66.7866C61.7178 67.2979 61.9792 67.8459 62.0233 68.3893C62.1085 69.6369 62.1539 70.8938 62.0526 72.1392C61.7016 76.3348 63.1644 80.0605 66.6332 83.2842C67.5335 84.1183 67.6113 84.9949 67.278 86.0518C66.8198 87.5029 66.5142 88.9952 66.3703 90.4853C66.2102 92.0857 67.0547 93.3391 69.0917 93.9526L69.3736 94.1835C69.3736 94.9969 69.384 95.8585 69.3663 96.7167C69.3502 97.8587 69.8333 98.8444 70.9377 99.5923C71.8056 100.184 72.6956 100.783 73.6796 101.246C74.6826 101.721 74.9852 102.33 74.8398 103.194C74.7003 104.004 74.6489 104.822 74.5799 105.64C74.5241 106.327 74.7428 106.931 75.5917 107.278C76.3774 107.599 76.9531 107.226 77.5406 106.894L77.8592 106.88L78.0693 107.06C79.0312 107.818 79.6524 107.946 80.5057 107.567C81.3531 107.185 81.5293 106.631 81.2209 105.664C81.0373 105.086 80.8376 104.474 80.8935 103.895Z"/>
</mask>
<path d="M80.8935 103.895C81.1035 101.733 80.3383 99.8324 78.8227 98.0333C77.2762 96.2032 76.5052 94.226 77.6683 92.0443L77.8534 91.548C78.5378 89.5823 78.2235 87.7671 76.3672 86.2598C74.9734 85.1259 74.5916 83.8242 74.9984 82.3272C75.5374 80.3604 75.3597 78.536 73.8456 76.7725C72.5326 75.2422 72.3065 73.5523 73.3492 71.7417C74.2303 70.2217 74.8045 68.5811 75.3626 66.9635C75.7973 65.7032 75.8018 64.3683 75.1923 63.1424C74.7003 62.1418 74.8281 61.2342 75.1336 60.2496C75.4596 59.211 75.6416 58.138 75.8179 57.0765C75.9559 56.2596 75.6079 55.5358 74.8281 54.9752C73.803 54.2399 73.4475 53.3254 73.6179 52.2823C73.8235 51.0863 74.1187 49.903 73.3198 48.7518C73.1773 48.5508 73.2611 48.2429 73.2831 47.9855C73.4814 45.9072 72.8101 43.9737 71.7674 42.0907C71.1697 41.0062 70.9172 39.8642 71.0728 38.6832C71.3768 36.3924 71.1918 34.1062 70.6822 31.8613C70.1329 29.4464 69.2679 27.0797 68.6173 24.6786C68.3912 23.848 68.2428 22.9737 68.3089 22.1327C68.444 20.4175 68.7069 18.7045 69.0006 16.9973C69.3545 14.9397 69.9993 12.9442 71.1331 11.0462C72.2213 9.20921 73.2317 7.34231 74.2392 5.47771C74.6005 4.80448 74.9103 4.10712 75.1262 3.39713C75.3906 2.54353 75.3773 1.68188 74.7164 0.905253C73.8382 -0.125275 72.6809 -0.318287 71.5295 0.545656C70.5926 1.25795 69.707 2.07135 69.077 2.96056C67.8419 4.70913 66.4203 6.32901 64.7079 7.80875C63.5154 8.83927 63.0057 10.0697 62.9323 11.4736C62.7972 14.2022 62.0012 16.7584 59.4752 18.8229C58.7555 19.4122 58.124 20.0751 57.5439 20.7541C56.958 21.4273 56.3441 22.1247 56.0107 22.8841C55.2191 24.6706 54.357 26.472 53.9532 28.3274C53.4171 30.7986 52.5888 33.1905 51.7503 35.6031C51.0541 37.6067 49.8632 39.253 48.0685 40.6983C46.9318 41.6139 46.1358 42.6985 45.6394 43.8967C45.0447 45.3317 44.5247 46.7827 44.0283 48.2406C43.8051 48.9046 43.6495 49.5905 43.5672 50.2718C43.1854 53.5322 42.8828 56.7996 42.4598 60.052C42.357 60.8229 42.4467 61.6788 41.7623 62.3796L41.47 62.1797C40.3788 61.0044 40.2467 59.643 40.0793 58.254C39.6901 54.9982 39.2671 51.7503 39.436 48.4715C39.4845 47.4812 39.436 46.4886 39.4742 45.4982C39.508 44.6883 39.0747 44.0863 38.2905 43.6026C37.9909 43.42 37.6825 43.2511 37.3374 43.05C37.399 42.44 37.4622 41.8414 37.5224 41.2452C37.6634 39.7896 37.4093 38.4373 36.2065 37.2161C35.7762 36.7841 35.5897 36.0994 35.5955 35.5342C35.6117 34.074 35.7865 32.6103 35.9363 31.1524C36.0509 29.9438 35.4942 28.9616 34.4163 28.1309C34.1402 27.923 33.7819 27.753 33.5851 27.5083C33.2767 27.128 32.8287 26.688 32.8595 26.2916C32.9535 24.8797 33.1122 23.4574 33.4632 22.0741C33.7393 20.9839 34.3737 19.9522 34.7731 18.8769C35.4883 16.933 36.2389 14.996 36.8043 13.0234C37.0936 12.0147 36.4533 11.3105 35.3665 10.9279C34.3282 10.5545 33.4588 10.6453 32.629 11.5322C31.1971 13.0556 29.8592 14.6422 28.6446 16.269C28.1086 16.9916 27.8883 17.8762 27.6474 18.7103C27.2494 20.1096 26.8235 21.5009 25.4871 22.5601C24.0434 23.7067 23.2534 25.1037 22.7423 26.6282C22.6601 26.8798 22.4955 27.1165 22.3046 27.4818C21.4044 25.6666 21.0358 25.4886 19.084 25.8539C19.0135 25.6069 18.9885 25.3472 18.8666 25.1175C18.3247 24.0915 17.2922 23.9318 16.32 24.7521C15.9132 25.091 15.4976 25.4828 15.2979 25.9113C14.5445 27.5289 13.7867 29.15 13.1964 30.8032C12.6118 32.4621 12.3152 34.182 11.7483 35.8432C10.4911 39.5 9.56886 43.235 7.55245 46.7172C7.30719 47.1411 7.21472 47.6248 7.1031 48.0878C6.5186 50.5797 6.60671 53.0589 7.27933 55.5358C8.0856 58.4827 8.00625 61.4456 7.4188 64.4085C7.04284 66.3236 5.60797 67.8022 4.05859 69.2199C1.60601 71.459 0.535419 74.0359 0.84089 76.9862C0.987751 78.4211 1.3769 79.786 2.11562 81.1049C3.39918 83.3819 3.87208 85.7152 2.71188 88.1301C2.51656 88.5322 2.37564 88.9596 2.31102 89.3824C2.13626 90.4531 2.08336 91.502 2.70605 92.5487C3.05852 93.1472 3.21565 93.8675 3.22299 94.5362C3.24649 97.1671 3.16567 99.7957 3.1598 102.427C3.15686 102.891 3.26704 103.37 3.43005 103.82C3.65622 104.473 4.14235 105.008 5.03527 105.17C6.00015 105.345 6.59194 104.852 7.09127 104.32C7.98566 103.365 8.61717 102.311 8.7699 101.126C9.046 98.9949 9.94038 97.0246 11.0037 95.0715C11.4839 94.1812 11.6822 93.161 11.7644 92.1879C11.9215 90.2808 11.3855 88.4185 10.8789 86.5608C10.754 86.1058 10.663 85.6095 10.7643 85.1592C11.2681 82.9442 12.3489 80.8946 14.5019 79.3839C16.2745 78.1305 17.0103 76.7162 16.7048 74.9113C16.6358 74.4817 16.6784 74.0394 16.5624 73.62C16.1982 72.3207 16.414 71.0684 16.7856 69.7874C17.2923 68.0262 17.8636 66.2547 18.0515 64.4613C18.3629 61.4846 19.0135 58.5746 19.9093 55.684C20.5335 53.6781 20.5453 51.6872 19.6289 49.7054C18.7418 47.7764 18.8197 45.8222 19.6788 43.8703C20.1062 42.8949 20.3411 41.8713 20.7538 40.8925C21.2076 39.8068 21.5219 38.6556 22.8113 37.5516C22.9156 38.1766 23.061 38.581 23.0375 38.9739C22.9479 40.2652 22.8334 41.5542 22.6689 42.834C22.4618 44.4987 22.917 45.9245 24.8027 46.8999C25.6413 47.3295 26.0716 47.9488 26.2347 48.7105C26.4006 49.4744 26.8911 50.1948 27.7297 50.4958C29.7153 51.2138 30.0472 52.5476 30.2322 53.9952L30.2807 54.3812C30.6728 56.9581 31.2514 59.4707 32.8874 61.8052C33.5483 62.7461 33.6379 63.942 33.9302 65.0312C34.127 65.7423 34.0447 66.5281 34.3928 67.183C35.0801 68.4869 34.9655 69.7817 34.7908 71.1236C34.4324 73.9808 35.4193 75.6317 38.6532 76.1326C39.4536 76.2555 39.9001 76.6369 39.975 77.2826C40.0587 77.9237 40.1659 78.5624 40.2716 79.2035C40.5477 80.8751 40.8797 82.5409 42.2132 83.946C42.993 84.7663 43.9887 85.2396 45.3531 84.9926C46.4795 84.787 47.4076 83.8897 47.5325 82.7971C47.6514 81.8091 47.7527 80.8107 47.6807 79.8262C47.4825 77.1413 48.49 74.7321 50.1245 72.4172C50.5901 71.7566 50.9587 70.9949 51.0895 70.2481C51.3274 68.8879 51.4096 67.5047 51.461 66.1283C51.5565 63.6445 52.1292 61.3215 54.6831 59.5867L55.015 59.2983C57.309 56.8398 58.6087 54.1836 57.8025 51.0771C57.1886 48.6909 57.7173 46.3656 58.5294 44.0668C58.6865 43.6164 58.923 43.1821 59.1271 42.7398C59.4061 43.2695 59.4061 43.7428 59.4061 44.2161C59.4091 45.6775 59.9819 46.9194 61.5885 47.7914C61.9895 48.0097 62.3287 48.3083 62.6548 48.6013C63.4508 49.3239 63.8737 50.1385 63.5256 51.1058C63.2025 52.0192 62.878 52.9291 62.5226 53.8378C61.8323 55.6048 60.8234 57.3372 60.4915 59.1433C60.0215 61.7041 60.1816 64.3097 61.4578 66.7866C61.7178 67.2979 61.9792 67.8459 62.0233 68.3893C62.1085 69.6369 62.1539 70.8938 62.0526 72.1392C61.7016 76.3348 63.1644 80.0605 66.6332 83.2842C67.5335 84.1183 67.6113 84.9949 67.278 86.0518C66.8198 87.5029 66.5142 88.9952 66.3703 90.4853C66.2102 92.0857 67.0547 93.3391 69.0917 93.9526L69.3736 94.1835C69.3736 94.9969 69.384 95.8585 69.3663 96.7167C69.3502 97.8587 69.8333 98.8444 70.9377 99.5923C71.8056 100.184 72.6956 100.783 73.6796 101.246C74.6826 101.721 74.9852 102.33 74.8398 103.194C74.7003 104.004 74.6489 104.822 74.5799 105.64C74.5241 106.327 74.7428 106.931 75.5917 107.278C76.3774 107.599 76.9531 107.226 77.5406 106.894L77.8592 106.88L78.0693 107.06C79.0312 107.818 79.6524 107.946 80.5057 107.567C81.3531 107.185 81.5293 106.631 81.2209 105.664C81.0373 105.086 80.8376 104.474 80.8935 103.895Z" fill="#11B0C8" stroke="#87F54E" stroke-width="2" mask="url(#path-1-inside-1_49_87)"/>
</g>
</svg>
