<svg width="33" height="57" viewBox="0 0 33 57" fill="none" xmlns="http://www.w3.org/2000/svg">
<path id="Vector" d="M29.9979 55.2779L29.9985 55.2772C30.4411 54.7978 30.5416 54.3012 30.3568 53.8279L30.3564 53.8268C29.933 52.7344 29.4585 51.6553 28.8955 50.6103C27.9219 48.8288 27.3292 46.9864 27.7503 44.8852C28.3229 42.0004 27.5165 39.2589 25.2408 36.8844C24.6994 36.3197 24.3048 35.7438 24.082 35.1156C23.8574 34.482 23.8185 33.8261 23.9432 33.1208L23.9433 33.1203C24.0748 32.3812 24.0467 31.7307 23.5731 31.1407C23.517 31.0711 23.4612 31.0016 23.4055 30.9324C22.076 29.2792 20.8351 27.7362 18.6704 26.7963L18.8696 26.3377M29.9979 55.2779L3.70044 2.96304C3.7055 2.85442 3.70538 2.74742 3.70485 2.65125C3.70478 2.63762 3.7047 2.62423 3.70462 2.61107C3.70411 2.52764 3.70365 2.45301 3.70544 2.37875C3.70959 2.20708 3.72568 2.08063 3.7623 1.9765L3.76231 1.9765L3.76331 1.97359C3.98697 1.32479 4.69843 0.856773 5.53393 0.865355L5.53658 0.865368C6.32283 0.869279 6.85149 1.19316 7.01419 1.82019L7.01437 1.82085C7.33406 3.04593 7.52431 4.28901 7.71902 5.56126C7.76622 5.86964 7.81368 6.17974 7.8633 6.49171C7.8769 6.57957 7.88716 6.67681 7.89817 6.78121C7.96206 7.38691 8.05139 8.23378 8.96592 8.8905L9.32571 9.14886L9.62557 8.82284C9.71726 8.72316 9.79877 8.6328 9.87461 8.54873C10.0265 8.3803 10.1557 8.23715 10.2982 8.09489L10.299 8.09406C10.7215 7.67025 11.1335 7.24603 11.543 6.82441C12.5304 5.80781 13.5031 4.8063 14.5726 3.86191C15.2724 3.24505 15.884 2.95476 16.5256 2.88548C17.1805 2.81475 17.9321 2.96679 18.9252 3.363L18.9257 3.3632C20.288 3.90504 21.7503 4.20337 23.3458 3.92298L23.3466 3.92284C24.9703 3.63484 26.3167 4.02203 27.5101 4.89391C28.0533 5.29505 28.3227 5.66364 28.4051 5.98504C28.4801 6.27798 28.4241 6.63066 28.0725 7.08237L28.0717 7.08342C27.7368 7.51594 27.5682 7.95606 27.6376 8.42917C27.7021 8.86843 27.9621 9.24089 28.233 9.56828L28.2345 9.57002C28.4616 9.84198 28.6856 10.1302 28.9151 10.4255C29.5103 11.1914 30.1428 12.0053 30.9646 12.7084L30.9664 12.7099C31.174 12.8858 31.3273 13.1314 31.4634 13.4467C31.5531 13.6544 31.6198 13.85 31.6918 14.061C31.7376 14.1953 31.7856 14.3358 31.843 14.4897C31.9145 14.6844 31.9562 14.8977 31.9883 15.1404C32.0034 15.2545 32.0158 15.3698 32.0289 15.4924L32.0315 15.5167C32.0454 15.6459 32.0603 15.7828 32.0796 15.9202L32.0796 15.9204C32.1716 16.5758 32.0199 17.1753 31.5611 17.7742C30.6648 18.9428 29.6744 19.9543 28.1774 20.5852L28.149 20.5972C27.6695 20.7987 27.2441 20.9774 26.8102 21.042L26.8101 21.042C25.4025 21.2518 24.2037 21.733 23.0817 22.4101C22.4504 22.791 21.743 23.0876 21.0009 23.3987C20.7763 23.4929 20.5485 23.5884 20.3186 23.688L20.3164 23.6889C20.109 23.78 19.8896 23.8547 19.6468 23.9375C19.6085 23.9505 19.5697 23.9637 19.5303 23.9772C19.2514 24.0728 18.9444 24.1822 18.6568 24.3315L18.6562 24.3318C18.1535 24.5937 17.7682 25.0296 17.7573 25.5722C17.7459 26.1367 18.1408 26.568 18.6717 26.7968L18.8696 26.3377M29.9979 55.2779C29.0708 56.2859 27.4377 56.4295 26.2118 55.5303L26.2113 55.5299C24.9845 54.6322 24.3526 53.4583 24.0337 52.1842M29.9979 55.2779L19.9543 40.8226M18.8696 26.3377C18.0354 25.9781 18.0648 25.2037 18.8873 24.7752L23.9628 30.8274C23.9013 30.7511 23.8399 30.6747 23.7786 30.5984C22.4608 28.9589 21.1499 27.3278 18.8696 26.3377ZM1.39804 21.9631L1.39808 21.9635C1.45761 22.7154 2.02089 23.2803 3.11152 23.7492C3.85536 24.067 4.44159 24.4722 4.70652 25.0631C4.98179 25.677 4.84581 26.3378 4.51288 26.9996C4.51278 26.9998 4.51269 27 4.5126 27.0001L4.06597 26.7754L1.39804 21.9631ZM1.39804 21.9631C1.38968 21.8587 1.38091 21.7563 1.37229 21.6556C1.31034 20.9317 1.25623 20.2994 1.41805 19.7154C2.06222 17.4094 2.51246 15.0977 2.58609 12.697C2.62012 11.6659 2.78153 10.6296 2.97392 9.56879C3.02063 9.3112 3.06937 9.05126 3.11843 8.7896C3.26937 7.98457 3.42335 7.16334 3.5308 6.34479C3.63347 5.56273 3.65188 4.75551 3.66953 3.98131M1.39804 21.9631L3.66953 3.98131M19.9543 40.8226L19.9544 40.8227C20.7946 41.4646 21.3972 42.18 21.7719 42.9823C22.1471 43.7856 22.2809 44.6484 22.2236 45.5651C22.1741 46.3654 22.1933 47.1269 22.4874 47.7344L22.4879 47.7354C23.1917 49.197 23.6615 50.6771 24.0337 52.1842M19.9543 40.8226C19.2719 40.3015 18.7072 39.6373 18.2063 38.9487M19.9543 40.8226L18.2063 38.9487M24.0337 52.1842C24.0338 52.1846 24.0339 52.185 24.0341 52.1855L23.5486 52.3053L24.0337 52.1839C24.0337 52.184 24.0337 52.1841 24.0337 52.1842ZM3.66953 3.98131C3.67746 3.63354 3.68524 3.29243 3.70043 2.96326L3.66953 3.98131ZM18.2063 38.9487C16.8101 37.0251 15.1567 35.2383 12.8511 33.8576L18.2063 38.9487ZM17.9797 18.4734L17.9801 18.4727C18.1737 18.1888 18.3832 17.8382 18.5217 17.4718C18.6563 17.1156 18.7505 16.6749 18.6193 16.2491C18.3668 15.4179 18.2704 14.7302 18.4578 14.1236C18.6389 13.5369 19.1195 12.9243 20.2573 12.3237L21.7955 11.5118L20.061 11.3829C19.2362 11.3216 18.5631 11.2862 18.0063 11.3006C17.4497 11.315 16.9781 11.3794 16.5674 11.536C15.7073 11.8638 15.2516 12.5443 14.7554 13.5039L14.7549 13.5049C14.4989 14.003 14.17 14.3949 13.7237 14.6996C13.2732 15.0071 12.6792 15.242 11.8718 15.3888L11.2648 15.4992L11.4986 16.0702C11.5381 16.1668 11.5706 16.2729 11.6042 16.3945C11.6127 16.4256 11.6218 16.4593 11.6313 16.4946C11.6558 16.586 11.6832 16.6877 11.7117 16.7794C11.7898 17.0296 11.9257 17.3832 12.2665 17.6018C13.2074 18.2067 13.9223 18.9157 14.5295 19.7325L14.5311 19.7345C14.6833 19.9371 14.9111 20.0525 15.0592 20.1243C15.1234 20.1554 15.1822 20.1826 15.2393 20.2089C15.3476 20.2588 15.4494 20.3057 15.5684 20.371L15.8905 20.5479L16.1554 20.2933C16.3466 20.1097 16.5306 19.9469 16.7193 19.78C16.8447 19.669 16.9722 19.5563 17.1052 19.4344C17.419 19.1467 17.7335 18.8332 17.9797 18.4734Z" fill="#11B0C8" stroke="#87F54E"/>
</svg>
