<svg width="65" height="40" viewBox="0 0 65 40" fill="none" xmlns="http://www.w3.org/2000/svg">
<g id="Vector">
<mask id="path-1-inside-1_49_90" fill="white">
<path d="M62.908 31.4348C61.9916 29.7173 61.175 27.9963 61.3234 26.0754C61.4247 24.7507 61.2808 23.4158 61.3439 22.0888C61.3939 21.0158 61.4453 19.9255 61.7507 18.887C62.2941 17.0465 63.0064 15.2301 63.6864 13.4138C64.0065 12.5682 63.936 11.7652 63.2326 11.0873C62.2339 10.1177 62.1252 9.03203 62.4645 7.91074C62.886 6.53211 63.4514 5.17761 63.9184 3.80587C64.0858 3.31531 64.2768 2.79832 64.2444 2.29857C64.1945 1.44841 63.7642 0.660282 62.6862 0.313326C61.5363 -0.0600531 60.5068 0.286905 59.7167 0.979667C59.1748 1.4553 58.6094 1.97803 58.3156 2.56165C57.7957 3.59562 57.4257 4.68359 57.0835 5.76582C56.4167 7.88776 55.8102 10.0246 55.1772 12.1523L54.9569 12.6383C53.6616 14.2019 53.2122 15.9608 52.9082 17.7691C52.754 18.7066 52.1196 19.3258 50.9917 19.8474C49.3615 20.6056 47.843 21.5695 46.4845 22.6116C45.1965 23.5961 44.1641 24.7875 43.026 25.8904C43.0583 25.1379 43.0068 24.3739 43.1743 23.6432C43.7588 21.1077 44.4373 18.5825 45.0644 16.047C45.3757 14.7821 45.715 13.5103 45.9191 12.2327C46.0205 11.5664 46.0087 10.8369 45.7649 10.2016C45.4624 9.4169 44.8499 8.68968 43.6178 8.62994C42.4444 8.5679 41.6425 9.0688 41.0771 9.8282C40.8862 10.0878 40.7187 10.3636 40.5734 10.6416C39.1268 13.4471 37.6905 16.2561 36.1514 19.2523C35.6388 17.421 34.6813 16.0906 32.0554 16.5617C31.1346 15.3657 30.9084 14.1238 30.5956 12.9071C30.3459 11.9421 29.757 11.1402 28.8994 10.4382C28.2355 9.89482 27.3941 9.89483 26.5981 10.1246C25.7859 10.3613 25.2411 10.8174 25.2411 11.5882C25.2411 12.2293 25.1133 12.8681 25.0546 13.5114C24.9547 14.5787 24.7917 15.6483 24.7843 16.7156C24.7799 17.8334 24.8665 18.9559 25.031 20.0668C25.2763 21.7281 23.9795 22.8184 22.8663 24.1418C22.317 23.2664 21.7693 22.5622 21.4197 21.7982C21.1833 21.2869 21.289 20.6884 21.1377 20.1461C20.8969 19.3074 20.5356 18.4917 20.2933 17.6531C20.0172 16.6938 19.794 15.7241 19.584 14.7603C19.4826 14.2927 19.512 13.8124 19.4019 13.3483C18.8761 11.1115 18.0581 8.91484 18.0478 6.60793C18.0434 5.8876 17.9127 5.14545 17.6762 4.44809C17.406 3.66342 16.66 3.24868 15.8978 3.38539C14.9226 3.56232 13.9416 3.81965 13.4158 4.55262C12.8827 5.29823 12.3863 6.07258 12.0118 6.87448C11.6168 7.72119 11.3833 8.61269 11.0881 9.48697C10.8839 10.0993 10.4463 10.4773 9.57835 10.444C7.99078 10.3877 7.19184 11.1655 6.62643 12.1661C6.22844 12.8761 5.94645 13.6263 5.48531 14.311C4.27223 16.1297 3.96678 17.9782 4.96837 19.9152C5.31056 20.5758 5.38986 21.2502 5.06971 21.9291C3.97412 24.2659 3.44981 26.7716 1.67426 28.9142C1.32326 29.3381 1.0134 29.8517 0.960526 30.3468C0.868004 31.1821 0.618314 32.2183 1.10883 32.8456C1.9944 33.96 2.16185 35.0663 2.11926 36.2795C2.10604 36.5346 2.15158 36.8011 2.22795 37.0481C2.48349 37.8397 3.27946 38.4061 4.15034 38.4428C5.11082 38.4785 5.70266 38.0924 6.061 37.1205C6.32682 36.4105 6.64551 35.7557 7.35338 35.2157C8.17581 34.5827 8.34913 33.7498 7.94526 32.9341C7.61923 32.2666 7.86594 31.7691 8.33589 31.2602C8.6913 30.8776 9.11574 30.5192 9.39478 30.109C9.665 29.7046 9.94988 29.2439 9.94694 28.8096C9.93078 27.3586 10.9265 26.3258 11.9986 25.2011C12.3731 25.424 12.5963 25.6388 12.8827 25.7181C14.1942 26.0708 14.6597 26.9209 15.0254 27.84C15.5409 29.1555 15.9404 30.5065 16.5836 31.7818C17.4648 33.5384 18.5237 35.2398 19.5223 36.962L19.9291 37.3664C20.4754 37.819 21.1157 37.9419 21.8824 37.7386C22.8913 37.4778 23.4964 36.9413 23.5037 36.129C23.5096 34.4115 23.4347 32.6905 23.3759 30.9707C23.3422 30.0091 23.2599 29.044 23.1953 27.9331C24.3555 28.4167 24.8123 28.967 24.7139 29.7954C24.6669 30.1779 24.7535 30.5766 24.6786 30.9546C24.379 32.4412 25.6156 33.2569 26.858 34.0611C27.3353 34.3678 27.9271 34.3724 28.3809 34.0427C29.5573 33.1845 30.7116 32.3045 30.4855 30.8569C30.4223 30.4824 30.4091 30.0723 30.5281 29.7104C30.9848 28.3191 30.8174 26.9818 30.1242 25.6698C29.8936 25.2367 29.7923 24.8243 30.1374 24.2969C30.9378 24.8679 31.7735 25.2712 32.264 25.8548C33.4183 27.2127 34.4361 28.6431 35.4435 30.0722C36.2395 31.2004 36.9136 32.3792 37.6846 33.5177C38.0885 34.1128 38.6877 34.5827 39.6408 34.5126C40.6072 34.4414 41.2548 34.0347 41.525 33.2684C41.6925 32.7882 41.9392 32.3252 42.183 31.7818L42.3974 31.9667L42.4635 32.347C42.5971 34.1071 43.8175 35.1904 45.878 35.7844C46.5976 35.99 47.3011 36.2359 47.9649 36.5266C50.6613 37.7064 53.7145 37.2676 55.6384 35.3972C55.9409 35.1043 56.2273 34.8021 56.6532 34.3678C56.8353 35.0204 56.9792 35.5167 57.1011 36.0142C57.4154 37.24 58.182 38.2717 59.3261 39.123C60.404 39.9249 61.8741 39.9846 63.1107 39.3286C64.1974 38.7496 64.7731 38.0051 64.6586 36.9321C64.45 35.0169 63.845 33.196 62.908 31.4348ZM10.3743 19.9186C11.3304 17.9265 12.2321 16.0596 13.1295 14.1893L13.5568 14.2743C13.5568 15.2566 13.3762 16.2641 13.6067 17.2142C13.8241 18.0885 14.485 18.8996 15.0475 19.9198H10.3743V19.9186ZM53.3796 29.6656C52.8245 30.0252 52.4074 30.5169 51.8802 30.9132C50.9799 31.5979 49.852 31.4762 49.6743 30.5732C49.5069 29.7379 49.7962 28.8349 49.9739 27.9721C50.1487 27.1289 50.5952 26.5246 51.7862 26.1523C52.848 25.8123 53.6851 25.0437 54.9114 24.2923C55.189 26.3718 55.6222 28.2065 53.3796 29.6656Z"/>
</mask>
<path d="M62.908 31.4348C61.9916 29.7173 61.175 27.9963 61.3234 26.0754C61.4247 24.7507 61.2808 23.4158 61.3439 22.0888C61.3939 21.0158 61.4453 19.9255 61.7507 18.887C62.2941 17.0465 63.0064 15.2301 63.6864 13.4138C64.0065 12.5682 63.936 11.7652 63.2326 11.0873C62.2339 10.1177 62.1252 9.03203 62.4645 7.91074C62.886 6.53211 63.4514 5.17761 63.9184 3.80587C64.0858 3.31531 64.2768 2.79832 64.2444 2.29857C64.1945 1.44841 63.7642 0.660282 62.6862 0.313326C61.5363 -0.0600531 60.5068 0.286905 59.7167 0.979667C59.1748 1.4553 58.6094 1.97803 58.3156 2.56165C57.7957 3.59562 57.4257 4.68359 57.0835 5.76582C56.4167 7.88776 55.8102 10.0246 55.1772 12.1523L54.9569 12.6383C53.6616 14.2019 53.2122 15.9608 52.9082 17.7691C52.754 18.7066 52.1196 19.3258 50.9917 19.8474C49.3615 20.6056 47.843 21.5695 46.4845 22.6116C45.1965 23.5961 44.1641 24.7875 43.026 25.8904C43.0583 25.1379 43.0068 24.3739 43.1743 23.6432C43.7588 21.1077 44.4373 18.5825 45.0644 16.047C45.3757 14.7821 45.715 13.5103 45.9191 12.2327C46.0205 11.5664 46.0087 10.8369 45.7649 10.2016C45.4624 9.4169 44.8499 8.68968 43.6178 8.62994C42.4444 8.5679 41.6425 9.0688 41.0771 9.8282C40.8862 10.0878 40.7187 10.3636 40.5734 10.6416C39.1268 13.4471 37.6905 16.2561 36.1514 19.2523C35.6388 17.421 34.6813 16.0906 32.0554 16.5617C31.1346 15.3657 30.9084 14.1238 30.5956 12.9071C30.3459 11.9421 29.757 11.1402 28.8994 10.4382C28.2355 9.89482 27.3941 9.89483 26.5981 10.1246C25.7859 10.3613 25.2411 10.8174 25.2411 11.5882C25.2411 12.2293 25.1133 12.8681 25.0546 13.5114C24.9547 14.5787 24.7917 15.6483 24.7843 16.7156C24.7799 17.8334 24.8665 18.9559 25.031 20.0668C25.2763 21.7281 23.9795 22.8184 22.8663 24.1418C22.317 23.2664 21.7693 22.5622 21.4197 21.7982C21.1833 21.2869 21.289 20.6884 21.1377 20.1461C20.8969 19.3074 20.5356 18.4917 20.2933 17.6531C20.0172 16.6938 19.794 15.7241 19.584 14.7603C19.4826 14.2927 19.512 13.8124 19.4019 13.3483C18.8761 11.1115 18.0581 8.91484 18.0478 6.60793C18.0434 5.8876 17.9127 5.14545 17.6762 4.44809C17.406 3.66342 16.66 3.24868 15.8978 3.38539C14.9226 3.56232 13.9416 3.81965 13.4158 4.55262C12.8827 5.29823 12.3863 6.07258 12.0118 6.87448C11.6168 7.72119 11.3833 8.61269 11.0881 9.48697C10.8839 10.0993 10.4463 10.4773 9.57835 10.444C7.99078 10.3877 7.19184 11.1655 6.62643 12.1661C6.22844 12.8761 5.94645 13.6263 5.48531 14.311C4.27223 16.1297 3.96678 17.9782 4.96837 19.9152C5.31056 20.5758 5.38986 21.2502 5.06971 21.9291C3.97412 24.2659 3.44981 26.7716 1.67426 28.9142C1.32326 29.3381 1.0134 29.8517 0.960526 30.3468C0.868004 31.1821 0.618314 32.2183 1.10883 32.8456C1.9944 33.96 2.16185 35.0663 2.11926 36.2795C2.10604 36.5346 2.15158 36.8011 2.22795 37.0481C2.48349 37.8397 3.27946 38.4061 4.15034 38.4428C5.11082 38.4785 5.70266 38.0924 6.061 37.1205C6.32682 36.4105 6.64551 35.7557 7.35338 35.2157C8.17581 34.5827 8.34913 33.7498 7.94526 32.9341C7.61923 32.2666 7.86594 31.7691 8.33589 31.2602C8.6913 30.8776 9.11574 30.5192 9.39478 30.109C9.665 29.7046 9.94988 29.2439 9.94694 28.8096C9.93078 27.3586 10.9265 26.3258 11.9986 25.2011C12.3731 25.424 12.5963 25.6388 12.8827 25.7181C14.1942 26.0708 14.6597 26.9209 15.0254 27.84C15.5409 29.1555 15.9404 30.5065 16.5836 31.7818C17.4648 33.5384 18.5237 35.2398 19.5223 36.962L19.9291 37.3664C20.4754 37.819 21.1157 37.9419 21.8824 37.7386C22.8913 37.4778 23.4964 36.9413 23.5037 36.129C23.5096 34.4115 23.4347 32.6905 23.3759 30.9707C23.3422 30.0091 23.2599 29.044 23.1953 27.9331C24.3555 28.4167 24.8123 28.967 24.7139 29.7954C24.6669 30.1779 24.7535 30.5766 24.6786 30.9546C24.379 32.4412 25.6156 33.2569 26.858 34.0611C27.3353 34.3678 27.9271 34.3724 28.3809 34.0427C29.5573 33.1845 30.7116 32.3045 30.4855 30.8569C30.4223 30.4824 30.4091 30.0723 30.5281 29.7104C30.9848 28.3191 30.8174 26.9818 30.1242 25.6698C29.8936 25.2367 29.7923 24.8243 30.1374 24.2969C30.9378 24.8679 31.7735 25.2712 32.264 25.8548C33.4183 27.2127 34.4361 28.6431 35.4435 30.0722C36.2395 31.2004 36.9136 32.3792 37.6846 33.5177C38.0885 34.1128 38.6877 34.5827 39.6408 34.5126C40.6072 34.4414 41.2548 34.0347 41.525 33.2684C41.6925 32.7882 41.9392 32.3252 42.183 31.7818L42.3974 31.9667L42.4635 32.347C42.5971 34.1071 43.8175 35.1904 45.878 35.7844C46.5976 35.99 47.3011 36.2359 47.9649 36.5266C50.6613 37.7064 53.7145 37.2676 55.6384 35.3972C55.9409 35.1043 56.2273 34.8021 56.6532 34.3678C56.8353 35.0204 56.9792 35.5167 57.1011 36.0142C57.4154 37.24 58.182 38.2717 59.3261 39.123C60.404 39.9249 61.8741 39.9846 63.1107 39.3286C64.1974 38.7496 64.7731 38.0051 64.6586 36.9321C64.45 35.0169 63.845 33.196 62.908 31.4348ZM10.3743 19.9186C11.3304 17.9265 12.2321 16.0596 13.1295 14.1893L13.5568 14.2743C13.5568 15.2566 13.3762 16.2641 13.6067 17.2142C13.8241 18.0885 14.485 18.8996 15.0475 19.9198H10.3743V19.9186ZM53.3796 29.6656C52.8245 30.0252 52.4074 30.5169 51.8802 30.9132C50.9799 31.5979 49.852 31.4762 49.6743 30.5732C49.5069 29.7379 49.7962 28.8349 49.9739 27.9721C50.1487 27.1289 50.5952 26.5246 51.7862 26.1523C52.848 25.8123 53.6851 25.0437 54.9114 24.2923C55.189 26.3718 55.6222 28.2065 53.3796 29.6656Z" fill="#11B0C8" stroke="#87F54E" stroke-width="2" mask="url(#path-1-inside-1_49_90)"/>
</g>
</svg>
